<?xml version="1.0" encoding="utf-8"?>
<svg viewBox="0 0 500 500" xmlns="http://www.w3.org/2000/svg">
  <g id="OBJECTS" transform="matrix(1, 0, 0, 1, -2.5575080680104065, -3.942866204466384)">
    <g>
      <path style="fill:#E6C293;" d="M292.358,416.202h-84.716c0,0-195.61-6.583-183.384,13.166 c12.226,19.749,76.175,12.226,63.95,19.749c-12.226,7.523,32.915,13.166,124.137,14.107c8.855,0.091,17.907,0.2,27.036,0.308 v0.239c3.541-0.036,7.082-0.076,10.62-0.116c3.537,0.04,7.079,0.079,10.62,0.116v-0.239c9.129-0.108,18.181-0.217,27.036-0.308 c91.222-0.941,136.363-6.583,124.137-14.107c-12.226-7.523,51.724,0,63.95-19.749 C487.968,409.619,292.358,416.202,292.358,416.202z"/>
      <path style="fill:#FFF0D9;" d="M417.52,421.229c34.138-39.086,54.826-90.221,54.826-146.192 c0-122.798-99.548-222.346-222.346-222.346S27.654,152.239,27.654,275.037c0,55.971,20.688,107.106,54.826,146.192H417.52z"/>
      <g>
        <g>
          <g>
            <g>
              <path style="fill:#E6C293;" d="M123.881,247.82c0.754,1.419,1.146,2.837,1.429,4.256c0.268,1.419,0.392,2.837,0.394,4.256 c0.003,1.419-0.122,2.838-0.389,4.256c-0.281,1.419-0.674,2.837-1.434,4.256c-0.759-1.419-1.152-2.837-1.434-4.256 c-0.267-1.419-0.392-2.838-0.389-4.256c0.002-1.419,0.127-2.838,0.394-4.256C122.734,250.657,123.126,249.239,123.881,247.82z "/>
            </g>
            <g>
              <path style="fill:#E6C293;" d="M132.393,256.332c-1.419,0.755-2.838,1.146-4.256,1.429c-1.419,0.267-2.838,0.392-4.256,0.394 c-1.419,0.003-2.838-0.122-4.256-0.389c-1.419-0.281-2.838-0.674-4.256-1.434c1.419-0.759,2.838-1.152,4.256-1.434 c1.419-0.267,2.838-0.392,4.256-0.389c1.419,0.002,2.837,0.127,4.256,0.394C129.556,255.186,130.974,255.578,132.393,256.332z "/>
            </g>
          </g>
        </g>
        <g>
          <g>
            <g>
              <path style="fill:#E6C293;" d="M304.512,94.207c0.755,1.419,1.146,2.838,1.429,4.256c0.267,1.419,0.392,2.838,0.394,4.256 c0.003,1.419-0.122,2.838-0.389,4.256c-0.281,1.419-0.674,2.838-1.434,4.256c-0.759-1.419-1.152-2.838-1.434-4.256 c-0.267-1.419-0.392-2.838-0.389-4.256c0.002-1.419,0.127-2.838,0.394-4.256C303.366,97.044,303.758,95.626,304.512,94.207z"/>
            </g>
            <g>
              <path style="fill:#E6C293;" d="M313.025,102.719c-1.419,0.755-2.837,1.146-4.256,1.429c-1.419,0.268-2.838,0.392-4.256,0.394 c-1.419,0.003-2.837-0.122-4.256-0.389c-1.419-0.281-2.838-0.674-4.256-1.434c1.419-0.759,2.837-1.152,4.256-1.434 c1.419-0.267,2.837-0.392,4.256-0.389c1.419,0.002,2.837,0.127,4.256,0.394C310.187,101.573,311.606,101.965,313.025,102.719z "/>
            </g>
          </g>
        </g>
        <g>
          <g>
            <g>
              <path style="fill:#E6C293;" d="M378.642,288.222c0.755,1.419,1.146,2.837,1.429,4.256c0.267,1.419,0.392,2.837,0.394,4.256 c0.003,1.419-0.122,2.838-0.389,4.256c-0.281,1.419-0.674,2.837-1.434,4.256c-0.759-1.419-1.152-2.837-1.434-4.256 c-0.267-1.419-0.392-2.838-0.389-4.256c0.002-1.419,0.126-2.837,0.394-4.256C377.496,291.06,377.888,289.641,378.642,288.222z "/>
            </g>
            <g>
              <path style="fill:#E6C293;" d="M387.155,296.735c-1.419,0.755-2.837,1.146-4.256,1.429c-1.419,0.267-2.837,0.392-4.256,0.394 c-1.419,0.003-2.837-0.122-4.256-0.389c-1.419-0.281-2.837-0.674-4.256-1.434c1.419-0.759,2.837-1.152,4.256-1.434 c1.419-0.267,2.838-0.392,4.256-0.389c1.419,0.002,2.837,0.127,4.256,0.394C384.317,295.588,385.736,295.98,387.155,296.735z"/>
            </g>
          </g>
        </g>
        <g>
          <g>
            <g>
              <path style="fill:#E6C293;" d="M337.977,186.471c0.443,0.828,0.664,1.655,0.833,2.483c0.156,0.828,0.229,1.655,0.23,2.483 c0.002,0.828-0.071,1.655-0.227,2.483c-0.169,0.828-0.391,1.655-0.836,2.483c-0.446-0.828-0.668-1.655-0.836-2.483 c-0.156-0.828-0.229-1.655-0.227-2.483c0.001-0.828,0.074-1.655,0.23-2.483C337.313,188.126,337.533,187.298,337.977,186.471z "/>
            </g>
            <g>
              <path style="fill:#E6C293;" d="M342.942,191.436c-0.828,0.443-1.655,0.664-2.483,0.833c-0.828,0.156-1.655,0.229-2.483,0.23 c-0.828,0.002-1.655-0.071-2.483-0.227c-0.828-0.169-1.655-0.391-2.483-0.836c0.828-0.446,1.655-0.668,2.483-0.836 c0.828-0.156,1.655-0.229,2.483-0.227c0.828,0.001,1.655,0.074,2.483,0.23C341.287,190.773,342.115,190.993,342.942,191.436z"/>
            </g>
          </g>
        </g>
        <g>
          <g>
            <g>
              <path style="fill:#E6C293;" d="M70.189,342.802c0.443,0.828,0.664,1.655,0.833,2.483c0.156,0.828,0.229,1.655,0.23,2.483 c0.002,0.828-0.071,1.655-0.227,2.483c-0.169,0.828-0.391,1.655-0.836,2.483c-0.446-0.828-0.668-1.655-0.836-2.483 c-0.156-0.828-0.229-1.655-0.227-2.483c0.001-0.828,0.074-1.655,0.23-2.483C69.525,344.457,69.746,343.629,70.189,342.802z"/>
            </g>
            <g>
              <path style="fill:#E6C293;" d="M75.155,347.767c-0.828,0.443-1.655,0.664-2.483,0.833c-0.828,0.156-1.655,0.229-2.483,0.23 c-0.828,0.002-1.655-0.071-2.483-0.227c-0.828-0.168-1.655-0.391-2.483-0.836c0.828-0.446,1.655-0.668,2.483-0.836 c0.828-0.156,1.655-0.229,2.483-0.227c0.828,0.001,1.655,0.074,2.483,0.23C73.499,347.103,74.327,347.324,75.155,347.767z"/>
            </g>
          </g>
        </g>
        <g>
          <g>
            <g>
              <path style="fill:#E6C293;" d="M181.622,137.016c0.511,0.961,0.776,1.921,0.967,2.882c0.181,0.961,0.265,1.921,0.267,2.882 c0.002,0.961-0.082,1.921-0.263,2.882c-0.19,0.961-0.457,1.921-0.971,2.882c-0.514-0.961-0.78-1.921-0.971-2.882 c-0.181-0.961-0.265-1.921-0.263-2.882c0.001-0.961,0.086-1.921,0.267-2.882C180.846,138.937,181.112,137.976,181.622,137.016 z"/>
            </g>
            <g>
              <path style="fill:#E6C293;" d="M187.386,142.779c-0.961,0.511-1.921,0.776-2.882,0.967c-0.961,0.181-1.921,0.265-2.882,0.267 c-0.961,0.002-1.921-0.083-2.882-0.263c-0.961-0.191-1.921-0.457-2.882-0.971c0.961-0.514,1.921-0.78,2.882-0.971 c0.961-0.181,1.921-0.265,2.882-0.263c0.961,0.001,1.921,0.086,2.882,0.267C185.465,142.003,186.426,142.268,187.386,142.779z "/>
            </g>
          </g>
        </g>
        <g>
          <g>
            <path style="fill:#FFFFFF;" d="M358.07,251.334c2.054,0,2.057-3.192,0-3.192C356.016,248.142,356.013,251.334,358.07,251.334 L358.07,251.334z"/>
          </g>
        </g>
        <g>
          <g>
            <path style="fill:#FFFFFF;" d="M428.777,252.825c2.054,0,2.057-3.192,0-3.192C426.723,249.633,426.719,252.825,428.777,252.825 L428.777,252.825z"/>
          </g>
        </g>
        <g>
          <g>
            <path style="fill:#FFFFFF;" d="M393.443,144.825c2.054,0,2.057-3.192,0-3.192C391.389,141.633,391.386,144.825,393.443,144.825 L393.443,144.825z"/>
          </g>
        </g>
        <g>
          <g>
            <path style="fill:#E6C293;" d="M72.11,216.825c2.054,0,2.058-3.192,0-3.192C70.056,213.633,70.053,216.825,72.11,216.825 L72.11,216.825z"/>
          </g>
        </g>
        <g>
          <g>
            <path style="fill:#E6C293;" d="M150.932,121.518c2.054,0,2.057-3.192,0-3.192C148.878,118.326,148.874,121.518,150.932,121.518 L150.932,121.518z"/>
          </g>
        </g>
        <g>
          <g>
            <path style="fill:#FFFFFF;" d="M396.377,352.953c4.108,0,4.115-6.384,0-6.384C392.269,346.569,392.262,352.953,396.377,352.953 L396.377,352.953z"/>
          </g>
        </g>
        <g>
          <g>
            <path style="fill:#E6C293;" d="M389.105,224.421c4.108,0,4.115-6.384,0-6.384C384.997,218.037,384.991,224.421,389.105,224.421 L389.105,224.421z"/>
          </g>
        </g>
        <g>
          <g>
            <path style="fill:#FFFFFF;" d="M156.11,201.755c4.108,0,4.115-6.384,0-6.384C152.002,195.37,151.995,201.755,156.11,201.755 L156.11,201.755z"/>
          </g>
        </g>
        <g>
          <g>
            <path style="fill:#FFFFFF;" d="M409.443,182.421c4.108,0,4.115-6.384,0-6.384C405.335,176.037,405.329,182.421,409.443,182.421 L409.443,182.421z"/>
          </g>
        </g>
        <g>
          <g>
            <path style="fill:#FFFFFF;" d="M434.777,316.421c4.108,0,4.115-6.384,0-6.384C430.669,310.037,430.662,316.421,434.777,316.421 L434.777,316.421z"/>
          </g>
        </g>
        <g>
          <g>
            <path style="fill:#FFFFFF;" d="M206.263,94.03c4.108,0,4.115-6.384,0-6.384C202.155,87.645,202.148,94.03,206.263,94.03 L206.263,94.03z"/>
          </g>
        </g>
        <g>
          <g>
            <path style="fill:#FFFFFF;" d="M117.597,172.696c4.108,0,4.115-6.384,0-6.384C113.488,166.312,113.482,172.696,117.597,172.696 L117.597,172.696z"/>
          </g>
        </g>
        <g>
          <g>
            <path style="fill:#FFFFFF;" d="M87.777,301.421c4.108,0,4.115-6.384,0-6.384C83.669,295.037,83.662,301.421,87.777,301.421 L87.777,301.421z"/>
          </g>
        </g>
        <g>
          <g>
            <path style="fill:#FFFFFF;" d="M345.443,153.088c4.108,0,4.115-6.384,0-6.384C341.335,146.704,341.329,153.088,345.443,153.088 L345.443,153.088z"/>
          </g>
        </g>
      </g>
      <g>
        <g>
          <polygon style="fill:#8A232F;" points="231.481,403.948 203.253,403.948 199.893,439.968 231.481,439.968 &#9;&#9;&#9;&#9;"/>
          <g>
            <g>
              <g>
                <g>
                  <path style="fill:#B87F4B;" d="M225.673,391.695c0,0,2.13,9.406-8.52,9.406h5.148c0,0,8.432-0.089,8.432-7.899 L225.673,391.695z"/>
                  <path style="fill:#CF8E54;" d="M217.153,401.101c0,0-1.117-5.506,7.09-9.406c0.867-0.412,1.877-0.436,2.762-0.063 l3.728,1.57c0,0-7.81,2.574-11.006,7.899H217.153z"/>
                </g>
                <g>
                  <path style="fill:#B87F4B;" d="M208.647,391.695c0,0-2.13,9.406,8.52,9.406h-5.148c0,0-8.432-0.089-8.432-7.899 L208.647,391.695z"/>
                  <path style="fill:#CF8E54;" d="M217.167,401.101c-0.553,2.724,1.67-5.243-7.09-9.406c-0.867-0.412-1.877-0.436-2.762-0.063 l-3.728,1.57c0,0,7.811,2.574,11.006,7.899H217.167z"/>
                </g>
                <path style="fill:#B87F4B;" d="M217.833,397.384c-0.402,0.842-0.947,1.608-1.027,2.221c-0.081-0.613-0.271-1.379-0.673-2.221 c-0.905,0.449-0.987,1.76-0.987,3.326c0,0.134,0.016,0.26,0.025,0.39h1.982h0.014h1.958c0.009-0.13,0.025-0.256,0.025-0.39 C219.15,399.144,218.738,397.834,217.833,397.384z"/>
              </g>
              <path style="fill:#A16F43;" d="M218.892,400.711c0,1.498-0.776,2.712-1.732,2.712c-0.957,0-1.732-1.214-1.732-2.712 c0-1.498,0.776-2.712,1.732-2.712C218.117,397.999,218.892,399.213,218.892,400.711z"/>
            </g>
          </g>
          <rect x="199.847" y="401.104" style="fill:#8A232F;" width="34.627" height="6.159"/>
          <rect x="213.101" y="401.104" style="fill:#CF8E54;" width="8.119" height="38.864"/>
        </g>
        <polygon style="opacity:0.5;fill:#7F7F7F;" points="247.485,401.104 209.738,401.104 217.717,439.968 247.485,439.968 &#9;&#9;&#9;"/>
        <g>
          <g>
            <g>
              <g>
                <g>
                  <path style="fill:#6E1E27;" d="M178.882,382.059c0,0,1.888,8.411-7.632,8.392l4.601,0.009c0,0,7.537-0.065,7.55-7.046 L178.882,382.059z"/>
                  <path style="fill:#8A232F;" d="M171.25,390.452c0,0-0.989-4.923,6.353-8.395c0.775-0.367,1.679-0.386,2.468-0.052 l3.329,1.409c0,0-6.985,2.287-9.851,7.042L171.25,390.452z"/>
                </g>
                <g>
                  <path style="fill:#6E1E27;" d="M163.664,382.03c0,0-1.92,8.403,7.6,8.422l-4.601-0.009c0,0-7.536-0.094-7.523-7.075 L163.664,382.03z"/>
                  <path style="fill:#8A232F;" d="M171.263,390.452c0,0,1.008-4.919-6.321-8.419c-0.774-0.37-1.677-0.393-2.468-0.061 l-3.335,1.397c0,0,6.977,2.314,9.824,7.079L171.263,390.452z"/>
                </g>
                <path style="opacity:0.5;fill:#8A232F;" d="M171.865,387.131c-0.361,0.752-0.532,1.436-0.605,1.984 c-0.071-0.548-0.24-1.233-0.598-1.986c-0.81,0.4-1.202,1.571-1.204,2.971c0,0.12,0.014,0.233,0.022,0.349l1.771,0.003h0.013 l1.75,0.004c0.009-0.116,0.023-0.229,0.023-0.349C173.039,388.706,172.673,387.534,171.865,387.131z"/>
              </g>
              <path style="fill:#581A21;" d="M172.806,390.106c-0.003,1.339-0.698,2.423-1.553,2.421c-0.855-0.002-1.546-1.088-1.544-2.427 c0.003-1.339,0.698-2.423,1.553-2.421C172.117,387.68,172.808,388.767,172.806,390.106z"/>
            </g>
          </g>
          <polygon style="fill:#58886B;" points="188.321,390.434 154.646,390.434 152.513,439.968 184.74,439.968 &#9;&#9;&#9;&#9;"/>
          <g>
            <defs>
              <polygon id="SVGID_1_" points="188.321,390.434 154.646,390.434 152.513,439.968 184.74,439.968 &#9;&#9;&#9;&#9;&#9;&#9;"/>
            </defs>
            <clipPath id="SVGID_00000052065394032366780680000015408841477267113877_">
              <polygon points="188.321,390.434 154.646,390.434 152.513,439.968 184.74,439.968 &#9;&#9;&#9;&#9;&#9;&#9;" style="overflow: visible;"/>
            </clipPath>
            <line style="clip-path:url(#SVGID_00000052065394032366780680000015408841477267113877_);fill:none;stroke:#8A232F;stroke-width:4.7744;stroke-miterlimit:10;" x1="144.699" y1="396.7" x2="192.443" y2="396.7"/>
            <line style="clip-path:url(#SVGID_00000052065394032366780680000015408841477267113877_);fill:none;stroke:#8A232F;stroke-width:4.7744;stroke-miterlimit:10;" x1="148.534" y1="405.951" x2="196.278" y2="405.951"/>
            <line style="clip-path:url(#SVGID_00000052065394032366780680000015408841477267113877_);fill:none;stroke:#8A232F;stroke-width:4.7744;stroke-miterlimit:10;" x1="148.534" y1="415.201" x2="196.278" y2="415.201"/>
            <line style="clip-path:url(#SVGID_00000052065394032366780680000015408841477267113877_);fill:none;stroke:#8A232F;stroke-width:4.7744;stroke-miterlimit:10;" x1="148.534" y1="424.451" x2="196.278" y2="424.451"/>
            <line style="clip-path:url(#SVGID_00000052065394032366780680000015408841477267113877_);fill:none;stroke:#8A232F;stroke-width:4.7744;stroke-miterlimit:10;" x1="148.534" y1="433.702" x2="196.278" y2="433.702"/>
          </g>
          <polygon style="opacity:0.5;fill:#7F7F7F;" points="154.506,391.59 154.303,397.965 187.78,397.965 188.237,391.59 &#9;&#9;&#9;&#9;"/>
          <polygon style="fill:#58886B;" points="190.111,390.434 152.811,390.434 152.109,396.081 189.799,396.081 &#9;&#9;&#9;&#9;"/>
        </g>
        <g>
          <g>
            <rect x="71.208" y="416.825" style="fill:#58886B;" width="76.147" height="23.143"/>
            <g>
              <g>
                <circle style="fill:#FFFFFF;" cx="78.347" cy="425.297" r="1.12"/>
                <path style="fill:#FFFFFF;" d="M100.09,425.297c0,0.618-0.501,1.12-1.12,1.12c-0.618,0-1.12-0.501-1.12-1.12 c0-0.618,0.501-1.12,1.12-1.12C99.589,424.177,100.09,424.678,100.09,425.297z"/>
                <circle style="fill:#FFFFFF;" cx="119.593" cy="425.297" r="1.12"/>
                <path style="fill:#FFFFFF;" d="M141.337,425.297c0,0.618-0.501,1.12-1.12,1.12c-0.618,0-1.12-0.501-1.12-1.12 c0-0.618,0.501-1.12,1.12-1.12C140.835,424.177,141.337,424.678,141.337,425.297z"/>
              </g>
              <g>
                <path style="fill:#FFFFFF;" d="M89.778,430.674c0,0.618-0.501,1.12-1.12,1.12c-0.618,0-1.12-0.501-1.12-1.12 c0-0.618,0.501-1.12,1.12-1.12C89.277,429.554,89.778,430.056,89.778,430.674z"/>
                <circle style="fill:#FFFFFF;" cx="109.282" cy="430.674" r="1.12"/>
                <circle style="fill:#FFFFFF;" cx="129.905" cy="430.674" r="1.12"/>
              </g>
              <g>
                <circle style="fill:#FFFFFF;" cx="78.347" cy="436.052" r="1.12"/>
                <path style="fill:#FFFFFF;" d="M100.09,436.052c0,0.618-0.501,1.12-1.12,1.12c-0.618,0-1.12-0.501-1.12-1.12 s0.501-1.12,1.12-1.12C99.589,434.932,100.09,435.433,100.09,436.052z"/>
                <circle style="fill:#FFFFFF;" cx="119.593" cy="436.052" r="1.12"/>
                <path style="fill:#FFFFFF;" d="M141.337,436.052c0,0.618-0.501,1.12-1.12,1.12c-0.618,0-1.12-0.501-1.12-1.12 s0.501-1.12,1.12-1.12C140.835,434.932,141.337,435.433,141.337,436.052z"/>
              </g>
            </g>
            <polygon style="opacity:0.5;fill:#426650;" points="71.208,416.825 71.208,422.774 147.18,424.445 147.355,416.825 &#9;&#9;&#9;&#9;&#9;"/>
            <rect x="69.322" y="413.259" style="fill:#58886B;" width="80.2" height="7.276"/>
          </g>
          <g>
            <g>
              <g>
                <g>
                  <g>
                    <path style="fill:#B87F4B;" d="M106.818,360.94c0,0,2.176,9.609-8.705,9.609h5.259c0,0,8.614-0.091,8.614-8.07 L106.818,360.94z"/>
                    <path style="fill:#CF8E54;" d="M98.114,370.549c0,0-1.141-5.625,7.243-9.609c0.886-0.421,1.918-0.445,2.821-0.065 l3.808,1.603c0,0-7.979,2.63-11.244,8.07H98.114z"/>
                  </g>
                  <g>
                    <path style="fill:#B87F4B;" d="M89.424,360.94c0,0-2.176,9.609,8.705,9.609h-5.259c0,0-8.614-0.091-8.614-8.07 L89.424,360.94z"/>
                    <path style="fill:#CF8E54;" d="M98.129,370.549c0,0,1.141-5.625-7.243-9.609c-0.886-0.421-1.918-0.445-2.821-0.065 l-3.809,1.603c0,0,7.979,2.63,11.244,8.07H98.129z"/>
                  </g>
                  <path style="fill:#B87F4B;" d="M98.809,366.752c-0.41,0.861-0.605,1.642-0.687,2.269c-0.082-0.627-0.277-1.408-0.687-2.269 c-0.925,0.459-1.37,1.798-1.37,3.398c0,0.137,0.016,0.266,0.026,0.399h2.024h0.015h2.001 c0.009-0.133,0.026-0.262,0.026-0.399C100.155,368.55,99.733,367.211,98.809,366.752z"/>
                </g>
                <path style="fill:#A16F43;" d="M99.891,370.15c0,1.53-0.792,2.771-1.77,2.771s-1.77-1.24-1.77-2.771 c0-1.53,0.792-2.771,1.77-2.771S99.891,368.62,99.891,370.15z"/>
              </g>
            </g>
            <polygon style="fill:#8A232F;" points="116.187,413.069 81.294,413.069 83.582,370.549 113.899,370.549 &#9;&#9;&#9;&#9;&#9;"/>
            <g>
              <defs>
                <polygon id="SVGID_00000127036213304619685000000007536097932318108032_" points="116.187,413.069 81.294,413.069 &#10;&#9;&#9;&#9;&#9;&#9;&#9;&#9;&#9;83.582,370.549 113.899,370.549 &#9;&#9;&#9;&#9;&#9;&#9;&#9;"/>
              </defs>
              <clipPath id="SVGID_00000034049648012617709860000005620695969842832809_">
                <polygon points="116.187,413.069 81.294,413.069 &#10;&#9;&#9;&#9;&#9;&#9;&#9;&#9;&#9;83.582,370.549 113.899,370.549 &#9;&#9;&#9;&#9;&#9;&#9;&#9;" style="overflow: visible;"/>
              </clipPath>
              <g style="clip-path:url(#SVGID_00000034049648012617709860000005620695969842832809_);">
                <g>
                  <path style="fill:#FFFFFF;" d="M99.542,385.428c-0.431,0-0.781-0.35-0.781-0.781s0.35-0.781,0.781-0.781 c0.432,0,0.781,0.35,0.781,0.781S99.974,385.428,99.542,385.428z"/>
                  <path style="fill:#FFFFFF;" d="M98.99,395.181c-0.305-0.305-0.305-0.8,0-1.105c0.305-0.305,0.8-0.305,1.105,0 c0.305,0.305,0.305,0.8,0,1.105C99.789,395.486,99.295,395.486,98.99,395.181z"/>
                  <path style="fill:#FFFFFF;" d="M104.16,380.438c-0.431,0-0.781-0.35-0.781-0.781c0-0.431,0.35-0.781,0.781-0.781 c0.432,0,0.781,0.35,0.781,0.781C104.941,380.088,104.591,380.438,104.16,380.438z"/>
                  <path style="fill:#FFFFFF;" d="M104.16,390.419c-0.431,0-0.781-0.35-0.781-0.781c0-0.431,0.35-0.781,0.781-0.781 c0.432,0,0.781,0.35,0.781,0.781C104.941,390.069,104.591,390.419,104.16,390.419z"/>
                  <path style="fill:#FFFFFF;" d="M104.16,400.4c-0.431,0-0.781-0.35-0.781-0.781c0-0.432,0.35-0.781,0.781-0.781 c0.432,0,0.781,0.35,0.781,0.781C104.941,400.05,104.591,400.4,104.16,400.4z"/>
                  <path style="fill:#FFFFFF;" d="M99.542,405.39c-0.431,0-0.781-0.35-0.781-0.781c0-0.431,0.35-0.781,0.781-0.781 c0.432,0,0.781,0.35,0.781,0.781C100.323,405.041,99.974,405.39,99.542,405.39z"/>
                  <path style="fill:#FFFFFF;" d="M104.16,410.381c-0.431,0-0.781-0.35-0.781-0.781c0-0.431,0.35-0.781,0.781-0.781 c0.432,0,0.781,0.35,0.781,0.781C104.941,410.031,104.591,410.381,104.16,410.381z"/>
                </g>
                <g>
                  <path style="fill:#FFFFFF;" d="M109.628,385.428c-0.431,0-0.781-0.35-0.781-0.781s0.35-0.781,0.781-0.781 c0.431,0,0.781,0.35,0.781,0.781S110.059,385.428,109.628,385.428z"/>
                  <path style="fill:#FFFFFF;" d="M109.075,395.181c-0.305-0.305-0.305-0.8,0-1.105c0.305-0.305,0.8-0.305,1.105,0 c0.305,0.305,0.305,0.8,0,1.105C109.875,395.486,109.38,395.486,109.075,395.181z"/>
                  <path style="fill:#FFFFFF;" d="M114.245,380.438c-0.431,0-0.781-0.35-0.781-0.781c0-0.431,0.35-0.781,0.781-0.781 s0.781,0.35,0.781,0.781C115.027,380.088,114.677,380.438,114.245,380.438z"/>
                  <path style="fill:#FFFFFF;" d="M114.245,390.419c-0.431,0-0.781-0.35-0.781-0.781c0-0.431,0.35-0.781,0.781-0.781 s0.781,0.35,0.781,0.781C115.027,390.069,114.677,390.419,114.245,390.419z"/>
                  <path style="fill:#FFFFFF;" d="M114.245,400.4c-0.431,0-0.781-0.35-0.781-0.781c0-0.432,0.35-0.781,0.781-0.781 s0.781,0.35,0.781,0.781C115.027,400.05,114.677,400.4,114.245,400.4z"/>
                  <path style="fill:#FFFFFF;" d="M109.628,405.39c-0.431,0-0.781-0.35-0.781-0.781c0-0.431,0.35-0.781,0.781-0.781 c0.431,0,0.781,0.35,0.781,0.781C110.409,405.041,110.059,405.39,109.628,405.39z"/>
                  <path style="fill:#FFFFFF;" d="M114.245,410.381c-0.431,0-0.781-0.35-0.781-0.781c0-0.431,0.35-0.781,0.781-0.781 s0.781,0.35,0.781,0.781C115.027,410.031,114.677,410.381,114.245,410.381z"/>
                </g>
                <path style="fill:#FFFFFF;" d="M83.269,380.438c-0.432,0-0.781-0.35-0.781-0.781c0-0.431,0.35-0.781,0.781-0.781 c0.431,0,0.781,0.35,0.781,0.781C84.05,380.088,83.7,380.438,83.269,380.438z"/>
                <path style="fill:#FFFFFF;" d="M83.269,390.419c-0.432,0-0.781-0.35-0.781-0.781c0-0.431,0.35-0.781,0.781-0.781 c0.431,0,0.781,0.35,0.781,0.781C84.05,390.069,83.7,390.419,83.269,390.419z"/>
                <path style="fill:#FFFFFF;" d="M83.269,400.4c-0.432,0-0.781-0.35-0.781-0.781c0-0.432,0.35-0.781,0.781-0.781 c0.431,0,0.781,0.35,0.781,0.781C84.05,400.05,83.7,400.4,83.269,400.4z"/>
                <path style="fill:#FFFFFF;" d="M83.269,410.381c-0.432,0-0.781-0.35-0.781-0.781c0-0.431,0.35-0.781,0.781-0.781 c0.431,0,0.781,0.35,0.781,0.781C84.05,410.031,83.7,410.381,83.269,410.381z"/>
                <g>
                  <path style="fill:#FFFFFF;" d="M88.737,385.428c-0.431,0-0.781-0.35-0.781-0.781s0.35-0.781,0.781-0.781 c0.431,0,0.781,0.35,0.781,0.781S89.168,385.428,88.737,385.428z"/>
                  <path style="fill:#FFFFFF;" d="M88.184,395.181c-0.305-0.305-0.305-0.8,0-1.105c0.305-0.305,0.8-0.305,1.105,0 c0.305,0.305,0.305,0.8,0,1.105C88.984,395.486,88.489,395.486,88.184,395.181z"/>
                  <path style="fill:#FFFFFF;" d="M93.354,380.438c-0.432,0-0.781-0.35-0.781-0.781c0-0.431,0.35-0.781,0.781-0.781 c0.431,0,0.781,0.35,0.781,0.781C94.135,380.088,93.786,380.438,93.354,380.438z"/>
                  <path style="fill:#FFFFFF;" d="M93.354,390.419c-0.432,0-0.781-0.35-0.781-0.781c0-0.431,0.35-0.781,0.781-0.781 c0.431,0,0.781,0.35,0.781,0.781C94.135,390.069,93.786,390.419,93.354,390.419z"/>
                  <path style="fill:#FFFFFF;" d="M93.354,400.4c-0.432,0-0.781-0.35-0.781-0.781c0-0.432,0.35-0.781,0.781-0.781 c0.431,0,0.781,0.35,0.781,0.781C94.135,400.05,93.786,400.4,93.354,400.4z"/>
                  <path style="fill:#FFFFFF;" d="M88.737,405.39c-0.431,0-0.781-0.35-0.781-0.781c0-0.431,0.35-0.781,0.781-0.781 c0.431,0,0.781,0.35,0.781,0.781C89.518,405.041,89.168,405.39,88.737,405.39z"/>
                  <path style="fill:#FFFFFF;" d="M93.354,410.381c-0.432,0-0.781-0.35-0.781-0.781c0-0.431,0.35-0.781,0.781-0.781 c0.431,0,0.781,0.35,0.781,0.781C94.135,410.031,93.786,410.381,93.354,410.381z"/>
                </g>
              </g>
            </g>
            <polygon style="opacity:0.7;fill:#CF8E54;" points="113.968,371.819 83.514,371.819 83.235,377.574 114.246,377.574 &#9;&#9;&#9;&#9;&#9;"/>
            <rect x="81.719" y="370.549" style="fill:#8A232F;" width="33.588" height="5.175"/>
            <rect x="94.927" y="370.549" style="fill:#CF8E54;" width="6.387" height="42.52"/>
          </g>
        </g>
        <g>
          <g>
            <g>
              <g>
                <g>
                  <path style="fill:#6E1E27;" d="M394.376,365.235c0,0,3.12,13.776-12.479,13.776h7.539c0,0,12.349-0.13,12.349-11.569 L394.376,365.235z"/>
                  <path style="fill:#8A232F;" d="M381.897,379.011c0,0-1.636-8.064,10.384-13.776c1.269-0.603,2.749-0.638,4.044-0.093 l5.46,2.299c0,0-11.439,3.77-16.119,11.569H381.897z"/>
                </g>
                <g>
                  <path style="fill:#6E1E27;" d="M369.439,365.235c0,0-3.12,13.776,12.479,13.776h-7.539c0,0-12.349-0.13-12.349-11.569 L369.439,365.235z"/>
                  <path style="fill:#8A232F;" d="M381.918,379.011c0,0,1.636-8.064-10.384-13.776c-1.27-0.603-2.749-0.638-4.045-0.093 l-5.46,2.299c0,0,11.439,3.77,16.119,11.569H381.918z"/>
                </g>
                <path style="fill:#6E1E27;" d="M382.893,373.568c-0.588,1.234-0.867,2.355-0.986,3.253c-0.118-0.898-0.397-2.019-0.985-3.253 c-1.326,0.658-1.964,2.578-1.964,4.872c0,0.196,0.023,0.381,0.037,0.571h2.902h0.021h2.868 c0.014-0.19,0.037-0.376,0.037-0.571C384.823,376.146,384.219,374.226,382.893,373.568z"/>
              </g>
              <path style="fill:#581A21;" d="M384.445,378.44c0,2.194-1.136,3.972-2.537,3.972c-1.401,0-2.537-1.778-2.537-3.972 c0-2.194,1.136-3.972,2.537-3.972C383.309,374.467,384.445,376.246,384.445,378.44z"/>
            </g>
          </g>
          <polygon style="fill:#CF8E54;" points="407.807,439.968 357.785,439.968 361.065,379.012 404.527,379.012 &#9;&#9;&#9;&#9;"/>
          <g>
            <defs>
              <polygon id="SVGID_00000176753859828081932770000006368452309637494970_" points="407.807,439.968 357.785,439.968 &#10;&#9;&#9;&#9;&#9;&#9;&#9;&#9;361.065,379.012 404.527,379.012 &#9;&#9;&#9;&#9;&#9;&#9;"/>
            </defs>
            <clipPath id="SVGID_00000119836568128810998390000007019979573412759741_">
              <polygon points="407.807,439.968 357.785,439.968 &#10;&#9;&#9;&#9;&#9;&#9;&#9;&#9;361.065,379.012 404.527,379.012 &#9;&#9;&#9;&#9;&#9;&#9;" style="overflow: visible;"/>
            </clipPath>
            <g style="clip-path:url(#SVGID_00000119836568128810998390000007019979573412759741_);">
              <g>
                <path style="fill:#FFFFFF;" d="M383.945,400.342c-0.618,0-1.12-0.501-1.12-1.12c0-0.618,0.501-1.12,1.12-1.12 c0.618,0,1.12,0.501,1.12,1.12C385.065,399.841,384.563,400.342,383.945,400.342z"/>
                <path style="fill:#FFFFFF;" d="M383.153,414.323c-0.437-0.437-0.437-1.146,0-1.584c0.437-0.437,1.146-0.437,1.584,0 c0.437,0.437,0.437,1.146,0,1.584C384.299,414.76,383.59,414.76,383.153,414.323z"/>
                <circle style="fill:#FFFFFF;" cx="390.565" cy="392.068" r="1.12"/>
                <path style="fill:#FFFFFF;" d="M390.565,407.496c-0.618,0-1.12-0.501-1.12-1.12c0-0.618,0.501-1.12,1.12-1.12 c0.618,0,1.12,0.501,1.12,1.12C391.684,406.995,391.183,407.496,390.565,407.496z"/>
                <circle style="fill:#FFFFFF;" cx="390.565" cy="420.685" r="1.12"/>
                <path style="fill:#FFFFFF;" d="M383.945,428.96c-0.618,0-1.12-0.501-1.12-1.12c0-0.618,0.501-1.12,1.12-1.12 c0.618,0,1.12,0.501,1.12,1.12C385.065,428.458,384.563,428.96,383.945,428.96z"/>
                <circle style="fill:#FFFFFF;" cx="390.565" cy="434.994" r="1.12"/>
              </g>
              <g>
                <circle style="fill:#FFFFFF;" cx="398.403" cy="399.222" r="1.12"/>
                <path style="fill:#FFFFFF;" d="M397.612,414.323c-0.437-0.437-0.437-1.146,0-1.584c0.437-0.437,1.146-0.437,1.584,0 c0.437,0.437,0.437,1.146,0,1.584C398.758,414.76,398.049,414.76,397.612,414.323z"/>
                <circle style="fill:#FFFFFF;" cx="405.023" cy="392.068" r="1.12"/>
                <path style="fill:#FFFFFF;" d="M405.023,407.496c-0.618,0-1.12-0.501-1.12-1.12c0-0.618,0.501-1.12,1.12-1.12 c0.618,0,1.12,0.501,1.12,1.12C406.143,406.995,405.642,407.496,405.023,407.496z"/>
                <circle style="fill:#FFFFFF;" cx="405.023" cy="420.685" r="1.12"/>
                <path style="fill:#FFFFFF;" d="M398.403,428.96c-0.618,0-1.12-0.501-1.12-1.12c0-0.618,0.501-1.12,1.12-1.12 c0.618,0,1.12,0.501,1.12,1.12C399.523,428.458,399.022,428.96,398.403,428.96z"/>
                <circle style="fill:#FFFFFF;" cx="405.023" cy="434.994" r="1.12"/>
              </g>
              <path style="fill:#FFFFFF;" d="M360.615,393.188c-0.618,0-1.12-0.501-1.12-1.12s0.501-1.12,1.12-1.12 c0.618,0,1.12,0.501,1.12,1.12S361.234,393.188,360.615,393.188z"/>
              <path style="fill:#FFFFFF;" d="M360.615,407.496c-0.618,0-1.12-0.501-1.12-1.12c0-0.618,0.501-1.12,1.12-1.12 c0.618,0,1.12,0.501,1.12,1.12C361.735,406.995,361.234,407.496,360.615,407.496z"/>
              <path style="fill:#FFFFFF;" d="M360.615,421.805c-0.618,0-1.12-0.501-1.12-1.12s0.501-1.12,1.12-1.12 c0.618,0,1.12,0.501,1.12,1.12S361.234,421.805,360.615,421.805z"/>
              <path style="fill:#FFFFFF;" d="M360.615,436.114c-0.618,0-1.12-0.501-1.12-1.12c0-0.618,0.501-1.12,1.12-1.12 c0.618,0,1.12,0.501,1.12,1.12C361.735,435.612,361.234,436.114,360.615,436.114z"/>
              <g>
                <path style="fill:#FFFFFF;" d="M368.454,400.342c-0.618,0-1.12-0.501-1.12-1.12c0-0.618,0.501-1.12,1.12-1.12 c0.618,0,1.12,0.501,1.12,1.12C369.574,399.841,369.072,400.342,368.454,400.342z"/>
                <path style="fill:#FFFFFF;" d="M367.662,414.323c-0.437-0.437-0.437-1.146,0-1.584c0.437-0.437,1.146-0.437,1.584,0 c0.437,0.437,0.437,1.146,0,1.584C368.809,414.76,368.099,414.76,367.662,414.323z"/>
                <path style="fill:#FFFFFF;" d="M375.074,393.188c-0.618,0-1.12-0.501-1.12-1.12s0.501-1.12,1.12-1.12 c0.618,0,1.12,0.501,1.12,1.12S375.693,393.188,375.074,393.188z"/>
                <path style="fill:#FFFFFF;" d="M375.074,407.496c-0.618,0-1.12-0.501-1.12-1.12c0-0.618,0.501-1.12,1.12-1.12 c0.618,0,1.12,0.501,1.12,1.12C376.194,406.995,375.693,407.496,375.074,407.496z"/>
                <path style="fill:#FFFFFF;" d="M375.074,421.805c-0.618,0-1.12-0.501-1.12-1.12s0.501-1.12,1.12-1.12 c0.618,0,1.12,0.501,1.12,1.12S375.693,421.805,375.074,421.805z"/>
                <path style="fill:#FFFFFF;" d="M368.454,428.96c-0.618,0-1.12-0.501-1.12-1.12c0-0.618,0.501-1.12,1.12-1.12 c0.618,0,1.12,0.501,1.12,1.12C369.574,428.458,369.072,428.96,368.454,428.96z"/>
                <path style="fill:#FFFFFF;" d="M375.074,436.114c-0.618,0-1.12-0.501-1.12-1.12c0-0.618,0.501-1.12,1.12-1.12 c0.618,0,1.12,0.501,1.12,1.12C376.194,435.612,375.693,436.114,375.074,436.114z"/>
              </g>
            </g>
          </g>
          <polygon style="opacity:0.5;fill:#CF8E54;" points="404.625,380.832 360.967,380.832 360.568,388.25 405.024,388.25 &#9;&#9;&#9;&#9;"/>
          <rect x="358.393" y="379.012" style="fill:#CF8E54;" width="48.152" height="7.419"/>
          <rect x="377.329" y="379.012" style="fill:#8A232F;" width="9.157" height="60.956"/>
        </g>
        <g>
          <path style="fill:#452516;" d="M263.746,344.871H235.33v65.924c9.805,3.505,19.283,3.568,28.416,0V344.871z"/>
          <path style="opacity:0.5;fill:#452516;" d="M263.746,382.858v-30.689H235.33v25.361c3.779-2.075,8.105-4.406,12.488-8.789 C253.598,374.52,259.284,380.86,263.746,382.858z"/>
          <g>
            <path style="fill:#1F3633;" d="M397.964,325.053c-18.335,0-33.035-6.908-44.139-15.323c3.791-1.635,6.424-4.227,6.424-4.227 c-13.36-1.909-20.918-9.499-23.388-12.429c-0.293-0.366-0.577-0.726-0.855-1.084c-0.035-0.049-0.058-0.082-0.058-0.082 l0.002,0.01c-5.34-6.869-11.394-17.329-11.394-17.329H174.332c0,0-8.067,14.764-17.849,25.056 c-3.34,2.503-12.138,7.89-25.097,7.01c0,0,3.166,4.795,8.133,7.056c-10.273,6.507-23.067,11.342-38.405,11.342 c0,0,1.36,11.216,32.968,11.216l-11.896,18.693c0,0,15.634,1.699,26.51-9.177L135.78,362.1c0,0,22.092,0,40.445-9.177 l-10.536,13.595c0,0,17.843,2.889,27.87-7.137l-8.43,13.337c0,0,22.534,5.866,43.776-15.376l-4.079,11.216 c0,0,12.121-1.359,24.696-13.935c12.575,12.575,24.726,13.935,24.726,13.935l-4.079-11.216 c21.242,21.242,43.587,14.997,43.587,14.997l-8.24-12.958c10.026,10.026,27.87,7.137,27.87,7.137l-10.536-13.595 c18.353,9.177,40.445,9.177,40.445,9.177l-12.915-16.314c10.876,10.876,26.51,9.177,26.51,9.177l-11.896-18.693 C396.604,336.269,397.964,325.053,397.964,325.053z"/>
            <path style="fill:#213B37;" d="M170.543,299.974c0,0-10.23,8.904-21.785,8.904c0,0,2.463,4.546,8.335,3.789 c0,0-13.663,13.332-28.818,14.089c0,0,9.567,3.67,19.607,1.208l-10.68,15.771c0,0,13.545-2.913,22.827-10.869 c0,0,2.936,6.701,12.787,8.596c0,0-6.062-15.155-5.304-21.596c0,0,3.031,3.599,8.809,1.326 C169.406,311.814,170.543,299.974,170.543,299.974z"/>
            <path style="fill:#213B37;" d="M327.397,299.216c0,0,11.745,6.82,18.944,6.82c0,0-1.705,3.41-3.789,3.41 c0,0,5.683,11.556,18.754,14.208c0,0-1.326,4.736-9.661,2.652c0,0,0.616,9.046,11.935,16.671c0,0-10.466,0.189-20.838-10.419 c0,0-1.705,4.736-10.23,3.41c0,0,4.546-4.878,3.552-14.397c0,0-2.131,6.394-11.082,5.257c0.284-0.426,7.672-9.093,5.967-16.481 c0,0-1.847,4.405-5.399,3.836C325.55,314.182,330.097,307.409,327.397,299.216z"/>
            <path style="fill:#213B37;" d="M228.227,326.59c-6.536,0.994-10.94-1.279-10.94-1.279c-0.71,11.935,9.377,14.918,9.377,14.918 s-9.519,4.783-15.913,0.994c-6.204,11.887-27.705,14.445-27.705,14.445c7.672-5.21,16.481-17.996,16.481-17.996 s-7.53-0.142-13.071-3.978c0,0,11.792-1.279,16.339-12.361c0,0-4.831,0.142-11.508-3.552c0,0,18.328-2.699,25.574-14.35 C216.86,303.431,219.276,320.338,228.227,326.59z"/>
            <path style="fill:#213B37;" d="M272.152,331.691c1.722,6.86-8.061,16.074-8.061,16.074c5.502,0.225,10.749-4.152,10.749-4.152 c3.485,13.344,25.455,18.052,25.455,18.052c-7.996-5.265-9.22-16.644-9.22-16.644c4.46,4.494,14.267,0.238,14.267,0.238 s-12.222-4.968-14.277-10.531c0,0,4.163,0.268,8.135-2.915c0,0-12.405,0.158-14.861-8.689c0,0,5.127,1.899,10.04-1.181 c0,0-15.673-4.777-18.93-20.191c0,0-5.78,16.134-13.056,21.622c0,0,6.675,1.688,9.474-2.958c0,0-5.638,11.385-12.286,16.37 C259.584,336.786,269.374,336.149,272.152,331.691z"/>
            <path style="fill:#213B37;" d="M245.134,336.856c0,0,5.854,9.538-7.64,17.026C237.494,353.882,235.096,341.077,245.134,336.856 z"/>
            <path style="fill:#213B37;" d="M196.247,297.748c0,0,2.22,12.32-10.211,14.54C186.036,312.288,183.705,304.407,196.247,297.748 z"/>
            <path style="fill:#213B37;" d="M315.178,328.579c0,0-7.956,2.178-8.146-8.904C307.033,319.675,313.663,322.138,315.178,328.579 z"/>
          </g>
          <g>
            <path style="fill:#274540;" d="M355.479,264.896c-12.355,0-22.495-6.951-30.581-16.414c6.333-0.358,11.562-5.508,11.562-5.508 c-13.858-1.98-21.474-10.073-23.643-12.736c-8.909-16.91-13.078-33.656-13.078-33.656h-50.217h-50.187 c0,0-3.984,16.017-12.493,32.54c-3.778,3.47-10.56,8.161-20.66,9.604c0,0,5.13,5.054,11.382,5.498 c-8.579,11.563-19.822,20.673-33.968,20.673c0,0,19.449,14.124,29.445,5.354l-14.236,13.254c0,0,18.098,2.294,24.216-3.824 l-13,13.51c0,0,22.814,5.48,42.824-14.53l-8.412,13.765c0,0,19.245-1.402,29.059-11.216l-8.412,10.451 c0,0,12.333,1.912,24.441-10.196c9.106,14.02,27.119,15.379,27.119,15.379l-11.06-15.634 c9.814,9.814,25.165,8.327,25.165,8.327l-4.517-10.876c20.01,20.01,42.824,14.53,42.824,14.53l-13-13.51 c6.118,6.118,24.216,3.824,24.216,3.824l-14.236-13.254C336.031,279.02,355.479,264.896,355.479,264.896z"/>
            <path style="fill:#294943;" d="M279.469,221.546c0,0,10.277,8.951,21.359,8.099c0,0-4.973,5.967-8.809,5.399 c0,0,13.924,8.525,27.563,6.678c0,0-3.836,7.672-15.06,5.399c0,0,14.066,12.929,24.296,14.208c0,0-6.82,6.536-14.066,3.552 l10.94,12.361l-19.323-7.956c0,0,1.894,11.745,6.251,14.587c0,0-20.27-5.115-23.49-19.133c0,0-1.705,6.63-12.313,7.199 c0,0,8.525-11.935,8.146-21.596c0,0-4.736,6.062-9.472,7.009c0,0,8.146-10.23,6.63-18.944c0,0-2.084,3.789-6.63,4.547 C275.491,242.953,281.553,230.071,279.469,221.546z"/>
            <path style="fill:#294943;" d="M224.533,237.459c-5.304,3.22-10.987,0-10.987,0c0.189,6.062,14.208,14.018,14.208,14.018 c-9.093,3.031-13.261-2.463-13.261-2.463c1.137,8.146,13.45,15.534,13.45,15.534c-7.577,0.379-15.344-5.304-15.344-5.304 c-5.683,14.397-20.649,17.049-20.649,17.049c4.357-5.115,3.978-18.186,3.978-18.186c-9.282,7.009-21.406,1.894-21.406,1.894 c14.776-5.494,25.953-17.996,25.953-17.996c-6.441,1.894-16.292-2.842-16.292-2.842c11.366,0,18.375-6.82,18.375-6.82 c-2.463,2.273-10.987-0.758-10.987-0.758c7.388-1.137,21.028-11.556,21.028-11.556S214.492,231.208,224.533,237.459z"/>
            <path style="fill:#294943;" d="M250.722,268.48c0,0,2.557,9.661,9.235,11.508c0,0-3.552-10.372-2.699-16.339 c0,0,3.836,2.699,10.23,0c0,0-7.104-2.842-11.082-11.935c0,0,3.836,2.984,10.94,0.995 c-12.503-7.53-14.634-23.443-14.634-23.443s-5.399,12.219-16.339,15.486c2.842,2.7,4.689,3.268,4.689,3.268 s-1.137,4.689-10.372,8.809c5.115,2.557,11.508,0.426,11.508,0.426s-7.388,11.65-15.344,16.055 c9.661,1.847,13.497-3.836,13.497-3.836s3.694,4.831-0.853,11.366C247.17,278.567,250.722,268.48,250.722,268.48z"/>
            <path style="fill:#294943;" d="M212.456,287.542c0,0,9.093,0.853,12.858-9.377 C225.314,278.165,216.789,277.241,212.456,287.542z"/>
            <path style="fill:#294943;" d="M261.899,231.066c0,0-2.984,9.945,5.967,14.208C267.866,245.274,270.14,237.317,261.899,231.066 z"/>
            <g>
              <path style="fill:#CF8E54;" d="M186.829,227.95c10.066-0.853,19.989-2.134,29.752-4.235 c9.767-2.082,19.349-4.924,29.113-7.622c2.441-0.657,4.926-1.247,7.386-1.874c2.495-0.543,4.981-1.132,7.498-1.596 c5.055-0.839,10.156-1.569,15.298-1.682c10.277-0.388,20.528,0.968,30.313,3.631c0.273,0.074,0.433,0.355,0.359,0.628 c-0.067,0.247-0.305,0.402-0.552,0.374l-0.007-0.001c-10.018-1.147-20.003-1.661-29.873-0.777 c-9.874,0.853-19.546,3.073-29.228,5.751l-7.305,1.934c-2.445,0.641-4.88,1.317-7.361,1.884l-3.707,0.875l-3.739,0.78 l-3.741,0.764l-3.782,0.584c-10.075,1.58-20.316,2.044-30.425,1.329c-0.206-0.015-0.361-0.193-0.347-0.4 c0.013-0.186,0.161-0.331,0.342-0.346L186.829,227.95z"/>
            </g>
          </g>
          <g>
            <g>
              <defs>
                <path id="SVGID_00000166648906482228610610000006381052266267127192_" d="M355.479,264.896 c-12.355,0-22.495-6.951-30.581-16.414c6.333-0.358,11.562-5.508,11.562-5.508c-13.858-1.98-21.474-10.073-23.643-12.736 c-8.909-16.91-13.078-33.656-13.078-33.656h-50.217h-50.187c0,0-3.984,16.017-12.493,32.54 c-3.778,3.47-10.56,8.161-20.66,9.604c0,0,5.13,5.054,11.382,5.498c-8.579,11.563-19.822,20.673-33.968,20.673 c0,0,19.449,14.124,29.445,5.354l-14.236,13.254c0,0,18.098,2.294,24.216-3.824l-13,13.51c0,0,22.814,5.48,42.824-14.53 l-8.412,13.765c0,0,19.245-1.402,29.059-11.216l-8.412,10.451c0,0,12.333,1.912,24.441-10.196 c9.106,14.02,27.119,15.379,27.119,15.379l-11.06-15.634c9.814,9.814,25.165,8.327,25.165,8.327l-4.517-10.876 c20.01,20.01,42.824,14.53,42.824,14.53l-13-13.51c6.118,6.118,24.216,3.824,24.216,3.824l-14.236-13.254 C336.031,279.02,355.479,264.896,355.479,264.896z"/>
              </defs>
              <clipPath id="SVGID_00000070802777669335874130000004921926132943253124_">
                <path d="M355.479,264.896 c-12.355,0-22.495-6.951-30.581-16.414c6.333-0.358,11.562-5.508,11.562-5.508c-13.858-1.98-21.474-10.073-23.643-12.736 c-8.909-16.91-13.078-33.656-13.078-33.656h-50.217h-50.187c0,0-3.984,16.017-12.493,32.54 c-3.778,3.47-10.56,8.161-20.66,9.604c0,0,5.13,5.054,11.382,5.498c-8.579,11.563-19.822,20.673-33.968,20.673 c0,0,19.449,14.124,29.445,5.354l-14.236,13.254c0,0,18.098,2.294,24.216-3.824l-13,13.51c0,0,22.814,5.48,42.824-14.53 l-8.412,13.765c0,0,19.245-1.402,29.059-11.216l-8.412,10.451c0,0,12.333,1.912,24.441-10.196 c9.106,14.02,27.119,15.379,27.119,15.379l-11.06-15.634c9.814,9.814,25.165,8.327,25.165,8.327l-4.517-10.876 c20.01,20.01,42.824,14.53,42.824,14.53l-13-13.51c6.118,6.118,24.216,3.824,24.216,3.824l-14.236-13.254 C336.031,279.02,355.479,264.896,355.479,264.896z" style="overflow: visible;"/>
              </clipPath>
              <path style="opacity:0.4;clip-path:url(#SVGID_00000070802777669335874130000004921926132943253124_);fill:#274540;" d=" M192.707,216.285c0,0,5.272,0.284,8.824-2.415l-5.044,11.366c0,0,18.486-1.137,26.94-7.317l-1.184,3.078 c0,0,12.164,2.107,18.131-2.794c0,0,0.995,9.093-3.126,10.869c0,0,16.268-1.634,22.235-10.443c0,0,11.201,5.186,20.009,5.115 l-1.492-5.612c0,0,8.174,7.388,23.235,4.617l-2.273-6.038c0,0,3.357,1.421,8.188,0.213v-32.962H192.707V216.285z"/>
            </g>
            <path style="fill:#30554E;" d="M322.171,177.973c-10.888,0-19.569-6.692-26.218-15.23c5.89-0.781,10.598-5.417,10.598-5.417 c-0.088-0.013-0.177-0.025-0.264-0.039c-10.835-1.618-19.843-9.158-23.784-19.379c-2.475-6.419-3.665-11.001-3.665-11.001 h-29.314h-29.284c0,0-2.195,8.449-6.822,18.474c-4.556,9.871-13.775,16.924-24.527,18.532c-0.092,0.014-0.183,0.027-0.275,0.04 c0,0,3.791,3.734,8.827,5.065c-5.695,5.324-12.518,8.955-20.537,8.955c0,0,1.274,14.785,16.569,14.785l-16.569,12.49 c0,0,22.034,8.369,35.161-4.758l-7.377,15.209c0,0,13.255,0.51,25.745-11.981l-1.927,7.137c0,0,6.877,0.537,16.14-5.362 c0.715,4.932,0.933,11.201-1.929,13.685c0,0,9.373-2.518,14.767-11.141c8.468,5.046,17.019,6.642,17.019,6.642l-5.863-10.961 c12.49,12.49,25.745,11.981,25.745,11.981l-8.922-13c13.128,13.128,36.706,2.549,36.706,2.549l-16.569-12.49 C320.897,192.758,322.171,177.973,322.171,177.973z"/>
            <path style="fill:#335952;" d="M278.522,191.852c9.244,9.244,23.869,8.667,23.869,8.667l-13.373-14.107 c10.77,0,15.172-4.837,15.172-4.837c-9.851-3.126-17.652-13.663-22.334-19.675c4.148-0.55,7.936-4.288,7.936-4.288 c-8.572-0.994-18.991-6.24-21.785-8.525c0,0-3.457,14.966-8.382,19.323c0,0,7.293,1.231,9.377-0.853 c0,0,0.379,16.623-9.093,17.76c0,0,7.151,3.978,12.645-1.137c0,0-2.273,8.998-8.241,9.898 C264.314,194.078,275.207,197.535,278.522,191.852z"/>
            <path style="fill:#335952;" d="M232.11,149.56c-5.494,5.304-23.064,12.527-29.931,15.913l9.093-0.568 c-4.01,3.749-9.756,12.74-22.259,17.334c0,0,6.469,4.357,17.239,4.357l-13.261,12.787c0,0,10.893,4.452,23.964-7.767 c4.357,3.221,2.084,12.124,2.084,12.124c12.456-7.199,8.761-13.734,10.987-17.807c0,0,5.494,3.978,11.177,0 c-10.04-7.956-10.798-15.913-10.798-15.913s5.115,6.82,9.283,4.736C239.688,174.755,231.163,160.926,232.11,149.56z"/>
            <path style="fill:#335952;" d="M238.93,194.268c0,0-0.568,7.388-3.883,10.419c0,0,8.146-0.852,10.23-9.377 c1.079-4.413-2.368-5.685-2.368-5.685S239.204,191.709,238.93,194.268z"/>
            <path style="fill:#335952;" d="M265.451,207.126c0,0-7.246-1.066-9.164-11.082 C256.287,196.044,263.462,193.983,265.451,207.126z"/>
            <path style="fill:#335952;" d="M246.981,165.757c0,0-7.388-6.725-5.399-13.734 C241.582,152.023,248.496,157.232,246.981,165.757z"/>
          </g>
          <g>
            <defs>
              <path id="SVGID_00000076587833611409979340000014321724622085595064_" d="M322.171,177.973 c-10.888,0-19.569-6.692-26.218-15.23c5.89-0.781,10.598-5.417,10.598-5.417c-0.088-0.013-0.177-0.025-0.264-0.039 c-10.835-1.618-19.843-9.158-23.784-19.379c-2.475-6.419-3.665-11.001-3.665-11.001h-29.314h-29.284 c0,0-2.195,8.449-6.822,18.474c-4.556,9.871-13.775,16.924-24.527,18.532c-0.092,0.014-0.183,0.027-0.275,0.04 c0,0,3.791,3.734,8.827,5.065c-5.695,5.324-12.518,8.955-20.537,8.955c0,0,1.274,14.785,16.569,14.785l-16.569,12.49 c0,0,22.034,8.369,35.161-4.758l-7.377,15.209c0,0,13.255,0.51,25.745-11.981l-1.927,7.137c0,0,6.877,0.537,16.14-5.362 c0.715,4.932,0.933,11.201-1.929,13.685c0,0,9.373-2.518,14.767-11.141c8.468,5.046,17.019,6.642,17.019,6.642l-5.863-10.961 c12.49,12.49,25.745,11.981,25.745,11.981l-8.922-13c13.128,13.128,36.706,2.549,36.706,2.549l-16.569-12.49 C320.897,192.758,322.171,177.973,322.171,177.973z"/>
            </defs>
            <clipPath id="SVGID_00000103955093563602831360000000771867105957043845_">
              <path d="M322.171,177.973 c-10.888,0-19.569-6.692-26.218-15.23c5.89-0.781,10.598-5.417,10.598-5.417c-0.088-0.013-0.177-0.025-0.264-0.039 c-10.835-1.618-19.843-9.158-23.784-19.379c-2.475-6.419-3.665-11.001-3.665-11.001h-29.314h-29.284 c0,0-2.195,8.449-6.822,18.474c-4.556,9.871-13.775,16.924-24.527,18.532c-0.092,0.014-0.183,0.027-0.275,0.04 c0,0,3.791,3.734,8.827,5.065c-5.695,5.324-12.518,8.955-20.537,8.955c0,0,1.274,14.785,16.569,14.785l-16.569,12.49 c0,0,22.034,8.369,35.161-4.758l-7.377,15.209c0,0,13.255,0.51,25.745-11.981l-1.927,7.137c0,0,6.877,0.537,16.14-5.362 c0.715,4.932,0.933,11.201-1.929,13.685c0,0,9.373-2.518,14.767-11.141c8.468,5.046,17.019,6.642,17.019,6.642l-5.863-10.961 c12.49,12.49,25.745,11.981,25.745,11.981l-8.922-13c13.128,13.128,36.706,2.549,36.706,2.549l-16.569-12.49 C320.897,192.758,322.171,177.973,322.171,177.973z" style="overflow: visible;"/>
            </clipPath>
            <path style="opacity:0.4;clip-path:url(#SVGID_00000103955093563602831360000000771867105957043845_);fill:#30554E;" d=" M212.977,146.743c0,0,3.945,0.237,8.018-2.321l-3.931,7.767c0,0,24.423-1.468,32.853-8.809c0,0,13.924,11.18,31.163,7.676 l-3.363-6.559c0,0,3.552,2.246,9.519,1.109v-12.598h-73.691L212.977,146.743z"/>
          </g>
          <g>
            <path style="fill:#38645B;" d="M249.523,134.639c7.392,8.922,23.706,9.432,23.706,9.432l-6.118-11.471 c8.794,8.794,26.51,3.824,26.51,3.824l-12.745-8.412c13,0,14.53-9.941,14.53-9.941c-32.883,0-45.883-63.726-45.883-63.726 s-12.97,63.726-45.853,63.726c0,0,1.529,9.941,14.53,9.941l-12.745,8.412c0,0,17.716,4.971,26.51-3.824l-6.118,11.471 C239.782,144.071,249.523,134.639,249.523,134.639z"/>
            <path style="fill:#3C6B61;" d="M249.501,123.032c3.976,4.798,10.726,8.982,10.726,8.982l-1.267-10.079 c4.73,4.73,15.728,5.655,15.728,5.655l-8.325-8.123c9.686,2.168,12.748-0.214,12.748-0.214 c-20.385-5.27-27.211-32.157-29.039-41.92c-0.142-0.761-1.212-0.798-1.408-0.049c-2.513,9.588-10.979,35.948-29.269,41.629 c0,0,4.594,3.403,13.258,0.554l-7.134,9.144c0,0,9.807-1.946,14.537-6.676l-1.267,9.398 C238.791,131.333,245.526,127.83,249.501,123.032"/>
          </g>
          <g>
            <polygon style="fill:#EECF6B;" points="249.538,64.503 238.459,70.328 240.575,57.991 231.612,49.254 243.999,47.454 &#10;&#9;&#9;&#9;&#9;&#9;&#9;249.538,36.229 255.078,47.454 267.465,49.254 258.502,57.991 260.618,70.328 &#9;&#9;&#9;&#9;&#9;"/>
            <polygon style="opacity:0.4;fill:#EECF6B;" points="249.538,56.451 238.459,70.328 246.551,54.281 231.612,49.254 &#10;&#9;&#9;&#9;&#9;&#9;&#9;247.692,50.769 249.538,36.229 251.385,50.769 267.465,49.254 252.526,54.281 260.618,70.328 &#9;&#9;&#9;&#9;&#9;"/>
          </g>
          <g>
            <polygon style="fill:#FFFFFF;" points="244.779,170.875 243.35,166.242 241.921,170.875 237.288,172.304 241.921,173.733 &#10;&#9;&#9;&#9;&#9;&#9;&#9;243.35,178.366 244.779,173.733 249.412,172.304 &#9;&#9;&#9;&#9;&#9;"/>
          </g>
          <g>
            <polygon style="fill:#FFFFFF;" points="255.811,94.427 254.828,91.24 253.845,94.427 250.658,95.41 253.845,96.393 &#10;&#9;&#9;&#9;&#9;&#9;&#9;254.828,99.58 255.811,96.393 258.999,95.41 &#9;&#9;&#9;&#9;&#9;"/>
          </g>
          <g>
            <polygon style="fill:#FFFFFF;" points="270.973,263.941 269.946,260.612 268.919,263.941 265.589,264.968 268.919,265.995 &#10;&#9;&#9;&#9;&#9;&#9;&#9;269.946,269.325 270.973,265.995 274.303,264.968 &#9;&#9;&#9;&#9;&#9;"/>
          </g>
          <g>
            <polygon style="fill:#FFFFFF;" points="220.236,330.542 218.808,325.909 217.379,330.542 212.746,331.971 217.379,333.399 &#10;&#9;&#9;&#9;&#9;&#9;&#9;218.808,338.033 220.236,333.399 224.87,331.971 &#9;&#9;&#9;&#9;&#9;"/>
          </g>
          <path style="fill:#892F14;" d="M267.958,439.968h-36.839c-1.161,0-2.135-0.874-2.26-2.028l-5.189-47.738 c-0.146-1.345,0.907-2.519,2.26-2.519h47.217c1.353,0,2.406,1.174,2.26,2.519l-5.189,47.738 C270.093,439.094,269.118,439.968,267.958,439.968z"/>
          <polygon style="opacity:0.5;fill:#892F14;" points="223.396,387.683 224.333,396.303 274.744,396.303 275.681,387.683 &#9;&#9;&#9;&#9;"/>
          <path style="fill:#892F14;" d="M278.556,393.035h-58.035c-1.237,0-2.24-1.003-2.24-2.24v-5.182c0-1.237,1.003-2.24,2.24-2.24 h58.035c1.237,0,2.24,1.003,2.24,2.24v5.182C280.796,392.032,279.793,393.035,278.556,393.035z"/>
          <g>
            <path style="opacity:0.5;fill:#38645B;" d="M267.547,349.509l-7.858,5.407l0.488-9.526l-7.571-5.802l9.211-2.48l2.806-7.937 c0.153-0.432,0.735-0.502,0.985-0.118l4.593,7.055l9.535,0.244l-5.994,7.42l2.714,9.144L267.547,349.509z"/>
            <path style="fill:#EECF6B;" d="M266.392,348.028l-7.858,5.407l0.488-9.526l-7.571-5.802l9.211-2.48l2.806-7.937 c0.153-0.432,0.735-0.502,0.985-0.117l4.593,7.055l9.536,0.244l-5.994,7.42l2.714,9.144L266.392,348.028z"/>
            <path style="fill:#CF8E54;" d="M265.724,329.549l-0.235-2.225c-0.017-0.166-0.164-0.287-0.33-0.272l-0.063,0.005 c0-0.004,0-0.007,0-0.011c-0.062-0.718-0.225-2.069-1.28-2.069c-1.055,0-0.982,1.541-0.92,2.259 c0,0.004,0.002,0.007,0.002,0.01l-0.062,0.005c-0.166,0.014-0.29,0.159-0.279,0.325l0.149,2.232L265.724,329.549z M264.69,327.092l-0.683,0.059l-0.02,0.002l-0.684,0.059c0-0.004-0.001-0.007-0.002-0.01c-0.043-0.494-0.109-1.818,0.549-1.818 s0.796,1.204,0.839,1.698C264.69,327.085,264.689,327.089,264.69,327.092z"/>
            <path style="opacity:0.5;fill:#FFFFFF;" d="M265.358,328.673l-0.065-0.681c-0.033-0.347-0.32-0.614-0.669-0.621l-0.67-0.014 c0,0-0.133,0.019-0.027,0.071c0.721,0.351,1.139,0.876,1.324,1.274C265.361,328.936,265.358,328.673,265.358,328.673z"/>
            <path style="opacity:0.5;fill:#FFFFFF;" d="M265.869,331.906l2.405,3.448c0.214,0.263,0.53,0.421,0.868,0.437l4.892,0.221 l-5.62,1.183c-0.588,0.124-1.175-0.21-1.37-0.779L265.869,331.906z"/>
            <path style="opacity:0.3;fill:#FFFFFF;" d="M255.777,339.15l4.183,3.386c0.338,0.274,0.513,0.7,0.465,1.132l-0.785,6.995 l3.069-7.754c0.268-0.678-0.086-1.442-0.776-1.676L255.777,339.15z"/>
          </g>
          <g>
            <path style="opacity:0.5;fill:#38645B;" d="M235.34,269.643l-8.985,2.169l5.476-9.824l-5.098-8.483l9.221,2.206l5.649-6.241 c0.308-0.34-0.083-0.451,0,0l1.355,8.318l9.82,4.136l-7.301,4.053l-1.75,10.918L235.34,269.643z"/>
            <path style="fill:#EECF6B;" d="M235.966,267.551l-9.335,1.959l4.124-8.601l-4.748-8.273l9.455,1.264l5.649-6.241 c0.308-0.34,0.871-0.18,0.954,0.271l1.518,8.28l8.704,3.902l-8.392,4.535l-1.022,9.484L235.966,267.551z"/>
            <path style="fill:#CF8E54;" d="M242.474,250.244l0.641-2.144c0.048-0.16-0.041-0.328-0.2-0.379l-0.06-0.019 c0.001-0.003,0.003-0.006,0.004-0.01c0.22-0.686,0.591-1.996-0.383-2.403c-0.973-0.407-1.5,1.043-1.72,1.729 c-0.001,0.003-0.001,0.007-0.002,0.01l-0.059-0.019c-0.158-0.051-0.328,0.035-0.382,0.192l-0.723,2.116L242.474,250.244z M242.468,247.578l-0.653-0.209l-0.019-0.006l-0.654-0.209c0.001-0.004,0.001-0.007,0.002-0.01 c0.151-0.473,0.601-1.719,1.208-1.465c0.607,0.254,0.27,1.418,0.119,1.89C242.471,247.572,242.469,247.574,242.468,247.578z"/>
            <path style="opacity:0.5;fill:#FFFFFF;" d="M242.475,249.294l0.203-0.653c0.103-0.333-0.059-0.69-0.377-0.831l-0.613-0.271 c0,0-0.131-0.034-0.052,0.055c0.53,0.602,0.713,1.247,0.73,1.686C242.376,249.538,242.475,249.294,242.475,249.294z"/>
            <path style="opacity:0.5;fill:#FFFFFF;" d="M241.699,252.474l0.889,4.109c0.096,0.325,0.326,0.593,0.632,0.738l4.429,2.09 l-5.641-1.075c-0.59-0.113-1.003-0.647-0.964-1.247L241.699,252.474z"/>
            <path style="opacity:0.3;fill:#FFFFFF;" d="M229.595,255.266l2.554,4.737c0.206,0.383,0.203,0.844-0.008,1.224l-3.421,6.151 l5.822-5.971c0.509-0.522,0.477-1.364-0.07-1.845L229.595,255.266z"/>
          </g>
          <g>
            <path style="opacity:0.5;fill:#38645B;" d="M279.423,194.237l-5.095,5.361l-0.589-8.979l-7.111-3.485l7.154-2.524l1.084-6.647 c0.059-0.362-0.251-0.267,0,0l4.525,5l8.395-1.488l-3.144,5.895l3.568,8.096L279.423,194.237z"/>
            <path style="fill:#EECF6B;" d="M278.935,192.559l-5.421,5.372l-0.966-7.57l-6.784-3.496l6.901-3.258l1.084-6.647 c0.059-0.362,0.507-0.499,0.759-0.232l4.617,4.904l7.543-1.16l-3.668,6.693l3.434,6.816L278.935,192.559z"/>
            <path style="fill:#CF8E54;" d="M275.788,178.104l-0.501-1.719c-0.037-0.128-0.17-0.202-0.299-0.168l-0.049,0.013 c-0.001-0.003-0.001-0.006-0.001-0.008c-0.151-0.557-0.47-1.598-1.301-1.448c-0.831,0.15-0.555,1.352-0.404,1.909 c0.001,0.003,0.002,0.005,0.003,0.008l-0.048,0.013c-0.129,0.035-0.206,0.166-0.173,0.295l0.434,1.736L275.788,178.104z M274.625,176.315l-0.529,0.143l-0.015,0.004l-0.53,0.143c-0.001-0.003-0.002-0.005-0.003-0.008 c-0.104-0.383-0.343-1.416,0.175-1.509c0.518-0.093,0.798,0.835,0.901,1.218C274.625,176.31,274.625,176.313,274.625,176.315z"/>
            <path style="opacity:0.5;fill:#FFFFFF;" d="M275.376,177.465l-0.147-0.527c-0.075-0.268-0.339-0.438-0.614-0.394l-0.53,0.084 c0,0-0.102,0.034-0.011,0.06c0.618,0.174,1.021,0.528,1.223,0.816C275.415,177.672,275.376,177.465,275.376,177.465z"/>
            <path style="opacity:0.5;fill:#FFFFFF;" d="M276.237,179.939l2.383,2.374c0.206,0.176,0.477,0.257,0.745,0.221l3.884-0.52 l-4.257,1.728c-0.445,0.181-0.955,0.001-1.189-0.419L276.237,179.939z"/>
            <path style="opacity:0.3;fill:#FFFFFF;" d="M269.317,187.074l3.774,2.073c0.305,0.167,0.503,0.479,0.526,0.826l0.374,5.619 l1.317-6.541c0.115-0.572-0.272-1.123-0.849-1.209L269.317,187.074z"/>
          </g>
          <g>
            <path style="opacity:0.5;fill:#38645B;" d="M249.896,128.775l-6.59,1.784l3.844-7.365l-3.936-6.16l6.854,1.442l4.044-4.723 c0.22-0.257-0.07-0.331,0,0l1.17,6.114l7.335,2.854l-5.308,3.141l-1.07,8.097L249.896,128.775z"/>
            <path style="fill:#EECF6B;" d="M250.315,127.218l-6.853,1.636l2.87-6.434l-3.673-6.012l7.006,0.741l4.044-4.723 c0.22-0.257,0.64-0.15,0.71,0.181l1.289,6.083l6.506,2.705l-6.104,3.518l-0.562,7.023L250.315,127.218z"/>
            <path style="fill:#CF8E54;" d="M254.77,114.307l0.43-1.596c0.032-0.119-0.037-0.241-0.155-0.275L255,112.423 c0.001-0.003,0.002-0.005,0.003-0.007c0.148-0.511,0.396-1.486-0.331-1.766c-0.727-0.281-1.086,0.8-1.235,1.312 c-0.001,0.003-0.001,0.005-0.001,0.008l-0.044-0.013c-0.118-0.034-0.242,0.032-0.278,0.15l-0.491,1.577L254.77,114.307z M254.71,112.339l-0.486-0.141l-0.014-0.004l-0.487-0.141c0.001-0.003,0.001-0.005,0.002-0.008 c0.102-0.352,0.409-1.282,0.862-1.106c0.453,0.175,0.228,1.041,0.126,1.393C254.712,112.334,254.711,112.336,254.71,112.339z"/>
            <path style="opacity:0.5;fill:#FFFFFF;" d="M254.751,113.606l0.137-0.486c0.069-0.248-0.058-0.508-0.296-0.606l-0.458-0.188 c0,0-0.097-0.022-0.037,0.042c0.404,0.434,0.552,0.907,0.574,1.23C254.683,113.788,254.751,113.606,254.751,113.606z"/>
            <path style="opacity:0.5;fill:#FFFFFF;" d="M254.243,115.97l0.74,3.016c0.078,0.238,0.253,0.431,0.482,0.532l3.312,1.453 l-4.187-0.68c-0.438-0.071-0.754-0.458-0.737-0.901L254.243,115.97z"/>
            <path style="opacity:0.3;fill:#FFFFFF;" d="M245.362,118.277l1.982,3.446c0.16,0.278,0.167,0.619,0.019,0.904l-2.401,4.611 l4.178-4.527c0.365-0.396,0.325-1.017-0.089-1.361L245.362,118.277z"/>
          </g>
          <g>
            <path style="opacity:0.5;fill:#38645B;" d="M322.913,328.301c1.418,4.529-1.104,9.35-5.634,10.768 c-4.529,1.418-9.35-1.104-10.768-5.634s1.104-9.35,5.634-10.768S321.495,323.772,322.913,328.301z"/>
            <path style="fill:#8A232F;" d="M324.228,326.949c1.418,4.529-1.104,9.35-5.634,10.768c-4.529,1.418-9.351-1.104-10.768-5.634 c-1.418-4.53,1.104-9.351,5.634-10.768C317.989,319.897,322.81,322.419,324.228,326.949z"/>
            <path style="opacity:0.3;fill:#FFFFFF;" d="M315.18,335.195c-1.966-0.669-4.262-1.726-4.471-4.875 c-0.373-2.776-2.215-2.422-1.586,0.747C310.895,337.365,316.942,335.794,315.18,335.195z"/>
            <path style="opacity:0.5;fill:#FFFFFF;" d="M322.308,328.396c-0.579,1.251-1.287-0.765-2.781-1.914 c-1.494-1.149-3.207-0.996-2.628-2.247s2.26-1.335,3.754-0.185C322.146,325.198,322.887,327.144,322.308,328.396z"/>
            <g>
              <g>
                <g>
                  <g>
                    <path style="fill:#EECF6B;" d="M313.523,321.58c-1.004,0.314-2.134-0.536-2.572-1.937c-0.438-1.4,0.005-2.743,1.009-3.058 c1.004-0.314,2.134,0.536,2.572,1.937C314.97,319.922,314.527,321.265,313.523,321.58z M312.156,317.215 c-0.629,0.197-0.893,1.219-0.576,2.231s1.116,1.701,1.745,1.504c0.629-0.197,0.893-1.218,0.576-2.231 C313.585,317.707,312.786,317.018,312.156,317.215z"/>
                  </g>
                </g>
                <path style="fill:#EECF6B;" d="M315.723,320.936l-0.605-1.934c-0.066-0.211-0.29-0.328-0.501-0.262 c-1.362,0.167-2.559,0.534-3.575,1.119c-0.211,0.066-0.328,0.29-0.262,0.501l0.605,1.934 C312.965,322.205,314.41,321.735,315.723,320.936z"/>
              </g>
            </g>
            <path style="opacity:0.5;fill:#FFFFFF;" d="M315.107,320.352l-0.188-0.658c-0.096-0.335-0.427-0.545-0.771-0.488l-0.661,0.108 c0,0-0.128,0.043-0.013,0.075c0.773,0.214,1.28,0.653,1.534,1.011C315.157,320.61,315.107,320.352,315.107,320.352z"/>
          </g>
          <g>
            <path style="opacity:0.5;fill:#38645B;" d="M205.445,321.377c-1.059,4.626-5.667,7.519-10.294,6.46 c-4.626-1.059-7.519-5.668-6.46-10.294c1.059-4.626,5.668-7.519,10.294-6.46C203.612,312.142,206.504,316.751,205.445,321.377z "/>
            <path style="fill:#8A232F;" d="M206.092,322.31c-2.2,4.205-7.393,5.831-11.598,3.631c-4.205-2.2-5.831-7.393-3.631-11.598 c2.2-4.205,7.393-5.831,11.598-3.631C206.666,312.913,208.292,318.105,206.092,322.31z"/>
            <path style="opacity:0.3;fill:#FFFFFF;" d="M193.863,321.743c-0.917-1.863-1.793-4.234,0.285-6.609 c1.699-2.227,0.146-3.28-1.65-0.594C189.298,320.248,194.685,323.413,193.863,321.743z"/>
            <path style="opacity:0.5;fill:#FFFFFF;" d="M203.711,321.976c-1.295,0.475-0.37-1.451-0.613-3.32 c-0.244-1.869-1.564-2.972-0.269-3.447c1.295-0.475,2.542,0.654,2.786,2.523C205.857,319.601,205.005,321.501,203.711,321.976z "/>
            <g>
              <g>
                <g>
                  <g>
                    <path style="fill:#EECF6B;" d="M202.319,310.944c-0.932-0.488-1.129-1.888-0.449-3.188c0.68-1.3,1.943-1.936,2.875-1.449 c0.932,0.487,1.129,1.888,0.449,3.188C204.514,310.795,203.251,311.432,202.319,310.944z M204.439,306.892 c-0.584-0.306-1.493,0.23-1.985,1.17c-0.492,0.94-0.413,1.992,0.171,2.298c0.584,0.306,1.493-0.23,1.985-1.17 C205.101,308.25,205.023,307.197,204.439,306.892z"/>
                  </g>
                </g>
                <path style="fill:#EECF6B;" d="M204.329,312.045l0.939-1.795c0.102-0.195,0.027-0.437-0.169-0.539 c-1.081-0.845-2.187-1.432-3.319-1.737c-0.196-0.102-0.437-0.027-0.539,0.169l-0.939,1.795 C201.482,310.992,202.837,311.681,204.329,312.045z"/>
              </g>
            </g>
            <path style="opacity:0.5;fill:#FFFFFF;" d="M204.306,311.196l0.332-0.598c0.169-0.304,0.083-0.687-0.199-0.89l-0.544-0.391 c0,0-0.121-0.06-0.063,0.043c0.396,0.698,0.443,1.367,0.37,1.8C204.16,311.414,204.306,311.196,204.306,311.196z"/>
          </g>
          <g>
            <path style="opacity:0.5;fill:#38645B;" d="M295.914,246.095c2.934,3.73,2.289,9.133-1.441,12.067 c-3.73,2.934-9.133,2.289-12.067-1.441c-2.934-3.73-2.289-9.133,1.441-12.067C287.577,241.72,292.979,242.365,295.914,246.095z "/>
            <path style="fill:#8A232F;" d="M298.259,246.085c1.89,4.354-0.108,9.415-4.461,11.305c-4.354,1.89-9.415-0.108-11.305-4.461 c-1.89-4.354,0.108-9.415,4.461-11.305C291.308,239.734,296.37,241.732,298.259,246.085z"/>
            <path style="opacity:0.3;fill:#FFFFFF;" d="M290.135,255.243c-2.026-0.457-4.42-1.264-4.963-4.374 c-0.665-2.721-2.46-2.174-1.498,0.91C286.104,257.855,291.95,255.653,290.135,255.243z"/>
            <path style="opacity:0.5;fill:#FFFFFF;" d="M296.503,247.728c-0.444,1.306-1.361-0.624-2.968-1.608 c-1.607-0.984-3.295-0.65-2.851-1.956c0.444-1.306,2.106-1.566,3.713-0.582C296.003,244.565,296.947,246.422,296.503,247.728z"/>
            <g>
              <g>
                <g>
                  <g>
                    <path style="fill:#EECF6B;" d="M287.045,241.88c-0.965,0.419-2.179-0.307-2.763-1.653 c-0.584-1.346-0.286-2.728,0.679-3.147c0.965-0.419,2.179,0.307,2.763,1.653 C288.309,240.079,288.01,241.461,287.045,241.88z M285.224,237.685c-0.605,0.262-0.759,1.306-0.337,2.279 c0.422,0.973,1.29,1.573,1.895,1.311c0.605-0.262,0.759-1.306,0.337-2.279 C286.697,238.023,285.829,237.422,285.224,237.685z"/>
                  </g>
                </g>
                <path style="fill:#EECF6B;" d="M289.165,241.007l-0.807-1.859c-0.088-0.202-0.323-0.295-0.526-0.208 c-1.336,0.311-2.488,0.802-3.437,1.492c-0.202,0.088-0.295,0.323-0.207,0.526l0.807,1.859 C286.557,242.561,287.944,241.94,289.165,241.007z"/>
              </g>
            </g>
            <path style="opacity:0.5;fill:#FFFFFF;" d="M288.49,240.492l-0.257-0.634c-0.131-0.323-0.482-0.497-0.818-0.404l-0.646,0.178 c0,0-0.122,0.057-0.005,0.076c0.791,0.131,1.342,0.514,1.633,0.843C288.568,240.743,288.49,240.492,288.49,240.492z"/>
          </g>
          <g>
            <path style="opacity:0.5;fill:#38645B;" d="M228.581,186.398c0.109,4.745-3.649,8.68-8.394,8.789 c-4.745,0.109-8.68-3.649-8.789-8.394c-0.109-4.745,3.649-8.68,8.394-8.789C224.537,177.895,228.472,181.653,228.581,186.398z"/>
            <path style="fill:#8A232F;" d="M229.437,187.143c-1.101,4.617-5.736,7.467-10.352,6.366c-4.617-1.101-7.467-5.736-6.366-10.352 c1.101-4.617,5.736-7.467,10.352-6.366C227.688,177.892,230.538,182.527,229.437,187.143z"/>
            <path style="opacity:0.3;fill:#FFFFFF;" d="M217.443,189.595c-1.346-1.581-2.777-3.664-1.345-6.477 c1.101-2.576-0.663-3.215-1.745-0.171C212.651,189.266,218.649,191.012,217.443,189.595z"/>
            <path style="opacity:0.5;fill:#FFFFFF;" d="M227.047,187.404c-1.138,0.778-0.715-1.316-1.409-3.068 c-0.695-1.752-2.245-2.497-1.107-3.276c1.139-0.778,2.625,0.011,3.32,1.762C228.545,184.574,228.185,186.625,227.047,187.404z"/>
            <g>
              <g>
                <g>
                  <g>
                    <path style="fill:#EECF6B;" d="M222.99,177.051c-1.023-0.244-1.558-1.553-1.218-2.98c0.34-1.427,1.408-2.354,2.432-2.11 c1.023,0.244,1.558,1.553,1.218,2.98S224.013,177.295,222.99,177.051z M224.051,172.602 c-0.641-0.153-1.391,0.59-1.637,1.621c-0.246,1.032,0.088,2.033,0.729,2.186c0.641,0.153,1.391-0.589,1.637-1.621 C225.026,173.756,224.692,172.755,224.051,172.602z"/>
                  </g>
                </g>
                <path style="fill:#EECF6B;" d="M225.209,177.625l0.47-1.971c0.051-0.215-0.081-0.43-0.296-0.481 c-1.255-0.553-2.471-0.851-3.644-0.869c-0.215-0.051-0.43,0.081-0.481,0.296l-0.47,1.971 C222.191,177.302,223.673,177.638,225.209,177.625z"/>
              </g>
            </g>
            <path style="opacity:0.5;fill:#FFFFFF;" d="M224.979,176.807l0.175-0.661c0.089-0.337-0.088-0.687-0.412-0.814l-0.624-0.246 c0,0-0.132-0.028-0.05,0.058c0.555,0.579,0.765,1.216,0.8,1.654C224.89,177.055,224.979,176.807,224.979,176.807z"/>
          </g>
          <g>
            <path style="fill:#CF8E54;" d="M346.51,301.568c-7.509,2.062-15.168,3.659-22.93,4.695c-7.769,0.94-15.621,1.381-23.475,1.166 c-7.857-0.156-15.696-1.044-23.433-2.406c-7.736-1.388-15.353-3.338-22.851-5.575c-7.482-2.298-14.844-4.892-22.14-7.549 c-7.283-2.699-14.547-5.342-21.862-7.737c-7.325-2.342-14.74-4.394-22.325-5.468c-7.571-1.144-15.292-1.335-22.985-0.489 c-0.215,0.025-0.409-0.129-0.434-0.344c-0.023-0.2,0.113-0.383,0.304-0.427c7.633-1.696,15.582-2.027,23.423-1.376 c7.855,0.661,15.574,2.368,23.102,4.503c15.083,4.268,29.495,10.088,44.255,14.473c7.357,2.267,14.8,4.18,22.325,5.652 c7.517,1.526,15.137,2.464,22.791,2.958c7.657,0.455,15.352,0.426,23.042-0.071c7.692-0.513,15.343-1.601,23.002-2.844 l0.009-0.001c0.235-0.038,0.456,0.121,0.494,0.356C346.856,301.303,346.718,301.51,346.51,301.568z"/>
          </g>
          <g>
            <path style="fill:#CF8E54;" d="M299.755,168.358c-8.141,0.693-16.44-0.214-24.389-2.061c-3.984-0.891-7.897-2.014-11.774-3.115 l-5.78-1.704c-1.92-0.572-3.84-1.118-5.761-1.608c-7.654-2.126-15.393-3.626-23.275-4.104 c-7.884-0.488-15.837,0.076-23.858,1.035l-0.007,0.001c-0.165,0.02-0.316-0.098-0.335-0.264 c-0.018-0.146,0.072-0.28,0.207-0.323c7.715-2.478,15.846-3.943,24.08-4.043c2.056-0.004,4.125-0.077,6.172,0.158 c2.051,0.173,4.118,0.277,6.146,0.625c2.038,0.294,4.076,0.609,6.071,1.072l3.011,0.64c0.997,0.231,1.981,0.494,2.971,0.745 c1.981,0.513,3.933,1.076,5.872,1.661c1.951,0.575,3.878,1.146,5.797,1.762l5.739,1.801l5.728,1.71 c7.638,2.21,15.397,3.737,23.385,4.427c0.438,0.037,0.763,0.423,0.726,0.861C300.447,168.024,300.134,168.325,299.755,168.358z "/>
          </g>
          <g>
            <path style="fill:#CF8E54;" d="M249.363,356.043c-10.537,0.738-21.161-1.284-31.191-4.435c-5.045-1.545-9.95-3.462-14.806-5.44 c-4.842-2.015-9.595-4.197-14.334-6.367l-14.106-6.629c-4.682-2.217-9.413-4.283-14.171-6.25 c-9.534-3.846-19.37-7.017-29.719-7.833c-0.234-0.018-0.409-0.221-0.391-0.454c0.016-0.212,0.186-0.375,0.391-0.391 c5.252-0.392,10.564,0.102,15.761,1.038c5.197,0.977,10.296,2.413,15.269,4.137c4.992,1.683,9.837,3.714,14.653,5.756 c4.797,2.088,9.525,4.288,14.255,6.445c4.703,2.215,9.413,4.375,14.142,6.455c4.715,2.115,9.491,4.045,14.305,5.848 c9.643,3.537,19.607,6.212,29.941,6.95c0.323,0.023,0.567,0.303,0.545,0.627C249.887,355.794,249.65,356.023,249.363,356.043z"/>
          </g>
          <g>
            <path style="fill:#CF8E54;" d="M220.632,110.857c4.183,0.385,8.322-0.436,12.551-1.511l6.409-1.748 c2.166-0.586,4.367-1.121,6.588-1.635c1.124-0.218,2.241-0.451,3.371-0.648c1.138-0.173,2.271-0.367,3.41-0.52l3.45-0.304 c1.152-0.08,2.314-0.072,3.467-0.088c4.624,0.026,9.239,0.706,13.591,2.094c0.348,0.111,0.54,0.483,0.429,0.831 c-0.092,0.289-0.364,0.47-0.653,0.46l-0.019-0.001c-4.474-0.163-8.836-0.12-13.163,0.332 c-4.323,0.451-8.589,1.287-12.855,2.344c-4.283,0.992-8.564,2.247-13.083,3.101c-2.272,0.406-4.578,0.753-6.969,0.77 c-2.365,0.096-4.818-0.305-7.103-1.014c-0.668-0.207-1.041-0.916-0.834-1.584c0.18-0.581,0.741-0.939,1.324-0.885 L220.632,110.857z"/>
          </g>
          <circle style="fill:#FFFFFF;" cx="232.461" cy="119.888" r="2.31"/>
          <circle style="fill:#FFFFFF;" cx="248.792" cy="147.137" r="2.31"/>
          <circle style="fill:#FFFFFF;" cx="267.829" cy="172.45" r="2.31"/>
          <circle style="fill:#FFFFFF;" cx="192.055" cy="243.931" r="2.31"/>
          <circle style="fill:#FFFFFF;" cx="159.953" cy="339.628" r="2.31"/>
          <path style="fill:#FFFFFF;" d="M301.866,347.117c0,1.276-1.034,2.31-2.31,2.31s-2.31-1.034-2.31-2.31 c0-1.276,1.034-2.31,2.31-2.31S301.866,345.841,301.866,347.117z"/>
          <circle style="fill:#FFFFFF;" cx="227.889" cy="314.176" r="2.31"/>
          <path style="fill:#FFFFFF;" d="M312.691,265.651c0,1.276-1.034,2.31-2.31,2.31c-1.276,0-2.31-1.034-2.31-2.31 s1.034-2.31,2.31-2.31C311.657,263.341,312.691,264.375,312.691,265.651z"/>
          <path style="fill:#FFFFFF;" d="M266.149,137.525c0,0.67-0.543,1.213-1.213,1.213c-0.67,0-1.213-0.543-1.213-1.213 s0.543-1.213,1.213-1.213C265.606,136.312,266.149,136.855,266.149,137.525z"/>
          <path style="fill:#FFFFFF;" d="M256.07,194.169c0,0.67-0.543,1.213-1.213,1.213c-0.67,0-1.213-0.543-1.213-1.213 c0-0.67,0.543-1.213,1.213-1.213C255.527,192.956,256.07,193.499,256.07,194.169z"/>
          <path style="fill:#FFFFFF;" d="M266.895,239.335c0,0.67-0.543,1.213-1.213,1.213c-0.67,0-1.213-0.543-1.213-1.213 s0.543-1.213,1.213-1.213C266.352,238.122,266.895,238.665,266.895,239.335z"/>
          <path style="fill:#FFFFFF;" d="M209.225,264.531c0,0.67-0.543,1.213-1.213,1.213c-0.67,0-1.213-0.543-1.213-1.213 c0-0.67,0.543-1.213,1.213-1.213C208.682,263.318,209.225,263.861,209.225,264.531z"/>
          <path style="fill:#FFFFFF;" d="M179.457,307.364c0,0.67-0.543,1.213-1.213,1.213s-1.213-0.543-1.213-1.213 c0-0.67,0.543-1.213,1.213-1.213S179.457,306.694,179.457,307.364z"/>
          <path style="fill:#FFFFFF;" d="M303.196,310.163c0,0.67-0.543,1.213-1.213,1.213c-0.67,0-1.213-0.543-1.213-1.213 c0-0.67,0.543-1.213,1.213-1.213C302.653,308.95,303.196,309.493,303.196,310.163z"/>
          <path style="fill:#FFFFFF;" d="M243.659,341.331c0,0.67-0.543,1.213-1.213,1.213s-1.213-0.543-1.213-1.213 c0-0.67,0.543-1.213,1.213-1.213S243.659,340.661,243.659,341.331z"/>
          <path style="fill:#FFFFFF;" d="M218.277,166.547c0,0.67-0.543,1.213-1.213,1.213s-1.213-0.543-1.213-1.213 c0-0.67,0.543-1.213,1.213-1.213S218.277,165.877,218.277,166.547z"/>
          <g>
            <defs>
              <path id="SVGID_00000030474719260958881590000001959311266032881034_" d="M278.556,383.374h-58.035 c-1.237,0-2.24,1.003-2.24,2.24v5.182c0,1.237,1.003,2.24,2.24,2.24h3.457l4.881,44.906c0.125,1.154,1.1,2.028,2.26,2.028 h36.839c1.16,0,2.135-0.874,2.26-2.028l4.881-44.906h3.457c1.237,0,2.24-1.003,2.24-2.24v-5.182 C280.796,384.376,279.793,383.374,278.556,383.374z"/>
            </defs>
            <clipPath id="SVGID_00000057113375975352649490000017530838020430958212_">
              <path d="M278.556,383.374h-58.035 c-1.237,0-2.24,1.003-2.24,2.24v5.182c0,1.237,1.003,2.24,2.24,2.24h3.457l4.881,44.906c0.125,1.154,1.1,2.028,2.26,2.028 h36.839c1.16,0,2.135-0.874,2.26-2.028l4.881-44.906h3.457c1.237,0,2.24-1.003,2.24-2.24v-5.182 C280.796,384.376,279.793,383.374,278.556,383.374z" style="overflow: visible;"/>
            </clipPath>
            <path style="opacity:0.5;clip-path:url(#SVGID_00000057113375975352649490000017530838020430958212_);fill:#892F14;" d=" M247.859,382.753c0,0,7.173,18.833,36.157,32.283v-33.341L247.859,382.753z"/>
            <path style="opacity:0.5;clip-path:url(#SVGID_00000057113375975352649490000017530838020430958212_);fill:#892F14;" d=" M247.818,382.727c0,0-15.631,20.1-23.256,20.1l-14.591-20.1H247.818z"/>
          </g>
        </g>
        <g>
          <rect x="372.203" y="423.568" style="fill:#58886B;" width="56.857" height="17.28"/>
          <g>
            <g>
              <path style="fill:#FFFFFF;" d="M378.37,429.893c0,0.462-0.374,0.836-0.836,0.836s-0.836-0.374-0.836-0.836 c0-0.462,0.374-0.836,0.836-0.836S378.37,429.431,378.37,429.893z"/>
              <path style="fill:#FFFFFF;" d="M393.769,429.893c0,0.462-0.374,0.836-0.836,0.836s-0.836-0.374-0.836-0.836 c0-0.462,0.374-0.836,0.836-0.836S393.769,429.431,393.769,429.893z"/>
              <path style="fill:#FFFFFF;" d="M409.167,429.893c0,0.462-0.374,0.836-0.836,0.836s-0.836-0.374-0.836-0.836 c0-0.462,0.374-0.836,0.836-0.836S409.167,429.431,409.167,429.893z"/>
              <path style="fill:#FFFFFF;" d="M424.566,429.893c0,0.462-0.374,0.836-0.836,0.836s-0.836-0.374-0.836-0.836 c0-0.462,0.374-0.836,0.836-0.836S424.566,429.431,424.566,429.893z"/>
            </g>
            <g>
              <path style="fill:#FFFFFF;" d="M386.069,433.908c0,0.462-0.374,0.836-0.836,0.836s-0.836-0.374-0.836-0.836 c0-0.462,0.374-0.836,0.836-0.836S386.069,433.446,386.069,433.908z"/>
              <path style="fill:#FFFFFF;" d="M401.468,433.908c0,0.462-0.374,0.836-0.836,0.836s-0.836-0.374-0.836-0.836 c0-0.462,0.374-0.836,0.836-0.836S401.468,433.446,401.468,433.908z"/>
              <path style="fill:#FFFFFF;" d="M416.867,433.908c0,0.462-0.374,0.836-0.836,0.836s-0.836-0.374-0.836-0.836 c0-0.462,0.374-0.836,0.836-0.836S416.867,433.446,416.867,433.908z"/>
            </g>
            <g>
              <path style="fill:#FFFFFF;" d="M378.37,437.923c0,0.462-0.374,0.836-0.836,0.836s-0.836-0.374-0.836-0.836 s0.374-0.836,0.836-0.836S378.37,437.462,378.37,437.923z"/>
              <path style="fill:#FFFFFF;" d="M393.769,437.923c0,0.462-0.374,0.836-0.836,0.836s-0.836-0.374-0.836-0.836 s0.374-0.836,0.836-0.836S393.769,437.462,393.769,437.923z"/>
              <path style="fill:#FFFFFF;" d="M409.167,437.923c0,0.462-0.374,0.836-0.836,0.836s-0.836-0.374-0.836-0.836 s0.374-0.836,0.836-0.836S409.167,437.462,409.167,437.923z"/>
              <path style="fill:#FFFFFF;" d="M424.566,437.923c0,0.462-0.374,0.836-0.836,0.836s-0.836-0.374-0.836-0.836 s0.374-0.836,0.836-0.836S424.566,437.462,424.566,437.923z"/>
            </g>
          </g>
          <polygon style="opacity:0.5;fill:#426650;" points="372.203,423.568 372.203,428.009 428.93,429.257 429.061,423.568 &#9;&#9;&#9;&#9;"/>
          <rect x="370.795" y="420.905" style="fill:#58886B;" width="59.883" height="5.433"/>
        </g>
        <g>
          <g>
            <g>
              <g>
                <g>
                  <path style="fill:#AD7746;" d="M158.346,399.182c0,0,2.09,9.23-8.361,9.23h5.051c0,0,8.274-0.087,8.274-7.751 L158.346,399.182z"/>
                  <path style="fill:#CF8E54;" d="M149.984,408.412c0,0-1.096-5.403,6.957-9.23c0.85-0.404,1.842-0.427,2.71-0.062l3.658,1.54 c0,0-7.664,2.526-10.8,7.751H149.984z"/>
                </g>
                <g>
                  <path style="fill:#AD7746;" d="M141.638,399.182c0,0-2.09,9.23,8.361,9.23h-5.052c0,0-8.274-0.087-8.274-7.751 L141.638,399.182z"/>
                  <path style="fill:#CF8E54;" d="M149.999,408.412c0,0,1.096-5.403-6.957-9.23c-0.851-0.404-1.842-0.427-2.71-0.062 l-3.658,1.54c0,0,7.664,2.526,10.8,7.751H149.999z"/>
                </g>
                <path style="fill:#8A5F38;" d="M150.652,404.765c-0.394,0.827-0.581,1.578-0.66,2.179c-0.079-0.602-0.266-1.353-0.66-2.179 c-0.888,0.441-1.316,1.727-1.316,3.264c0,0.131,0.016,0.255,0.025,0.383h1.945h0.014h1.922 c0.009-0.127,0.025-0.252,0.025-0.383C151.945,406.492,151.54,405.206,150.652,404.765z"/>
              </g>
              <path style="fill:#AD7746;" d="M151.691,408.029c0,1.47-0.761,2.661-1.7,2.661s-1.7-1.191-1.7-2.661 c0-1.47,0.761-2.661,1.7-2.661S151.691,406.559,151.691,408.029z"/>
            </g>
          </g>
          <polygon style="fill:#8A232F;" points="167.344,449.253 133.829,449.253 136.027,408.412 165.147,408.412 &#9;&#9;&#9;&#9;"/>
          <polygon style="opacity:0.5;fill:#CF8E54;" points="165.212,409.632 135.961,409.632 135.694,414.602 165.48,414.602 &#9;&#9;&#9;&#9;"/>
          <rect x="134.237" y="408.412" style="fill:#6E1C25;" width="32.262" height="4.97"/>
          <g>
            <defs>
              <polygon id="SVGID_00000110446542169545908770000008603827523564110001_" points="167.344,449.253 133.829,449.253 &#10;&#9;&#9;&#9;&#9;&#9;&#9;&#9;136.027,408.412 165.147,408.412 &#9;&#9;&#9;&#9;&#9;&#9;"/>
            </defs>
            <clipPath id="SVGID_00000152248382185095452050000003369848309845918381_">
              <polygon points="167.344,449.253 133.829,449.253 &#10;&#9;&#9;&#9;&#9;&#9;&#9;&#9;136.027,408.412 165.147,408.412 &#9;&#9;&#9;&#9;&#9;&#9;" style="overflow: visible;"/>
            </clipPath>
            <line style="clip-path:url(#SVGID_00000152248382185095452050000003369848309845918381_);fill:none;stroke:#FFFFFF;stroke-width:1.2432;stroke-miterlimit:10;" x1="129.998" y1="422.611" x2="174.511" y2="422.611"/>
            <line style="clip-path:url(#SVGID_00000152248382185095452050000003369848309845918381_);fill:none;stroke:#FFFFFF;stroke-width:1.2432;stroke-miterlimit:10;" x1="129.998" y1="427.37" x2="174.511" y2="427.37"/>
            <line style="clip-path:url(#SVGID_00000152248382185095452050000003369848309845918381_);fill:none;stroke:#FFFFFF;stroke-width:1.2432;stroke-miterlimit:10;" x1="129.998" y1="432.129" x2="174.511" y2="432.129"/>
            <line style="clip-path:url(#SVGID_00000152248382185095452050000003369848309845918381_);fill:none;stroke:#FFFFFF;stroke-width:1.2432;stroke-miterlimit:10;" x1="129.998" y1="436.889" x2="174.511" y2="436.889"/>
          </g>
          <rect x="146.924" y="408.412" style="fill:#CF8E54;" width="6.135" height="40.841"/>
        </g>
        <g>
          <g>
            <g>
              <g>
                <g>
                  <path style="fill:#8A232F;" d="M284.699,399.606h-2.771c-0.605,0-1.103,0.474-1.12,1.079 c-0.049,1.726,0.073,6.173,1.538,9.984h1.936c1.465-3.812,1.587-8.258,1.538-9.984 C285.802,400.08,285.304,399.606,284.699,399.606z"/>
                  <path style="opacity:0.4;fill:#8A232F;" d="M283.413,408.126c-0.159-1.208-0.736-3.002-2.545-4.825 c0.136,2.099,0.517,4.867,1.478,7.367h1.06h0.015h0.861c0.927-2.411,1.315-5.074,1.464-7.144 C284.105,405.27,283.565,406.968,283.413,408.126z"/>
                  <g>
                    <path style="fill:#6E1E27;" d="M291.926,401.263c0,0,2.13,9.406-8.521,9.406h5.148c0,0,8.432-0.089,8.432-7.899 L291.926,401.263z"/>
                    <path style="fill:#8A232F;" d="M283.405,410.669c0,0-1.117-5.506,7.09-9.406c0.867-0.412,1.877-0.436,2.762-0.063 l3.728,1.57c0,0-7.81,2.574-11.006,7.899H283.405z"/>
                  </g>
                  <g>
                    <path style="fill:#6E1E27;" d="M274.899,401.263c0,0-2.13,9.406,8.521,9.406h-5.148c0,0-8.432-0.089-8.432-7.899 L274.899,401.263z"/>
                    <path style="fill:#8A232F;" d="M283.42,410.669c0,0,1.117-5.506-7.09-9.406c-0.867-0.412-1.877-0.436-2.762-0.063 l-3.728,1.57c0,0,7.81,2.574,11.006,7.899H283.42z"/>
                  </g>
                  <path style="fill:#6E1E27;" d="M284.086,406.952c-0.402,0.842-0.592,1.608-0.673,2.221 c-0.081-0.613-0.271-1.379-0.673-2.221c-0.905,0.449-1.341,1.76-1.341,3.326c0,0.134,0.016,0.26,0.025,0.39h1.982h0.014 h1.958c0.009-0.13,0.025-0.257,0.025-0.39C285.403,408.712,284.991,407.401,284.086,406.952z"/>
                </g>
                <path style="fill:#581A21;" d="M285.145,410.279c0,1.498-0.776,2.712-1.732,2.712c-0.957,0-1.732-1.214-1.732-2.712 s0.776-2.712,1.732-2.712C284.369,407.566,285.145,408.781,285.145,410.279z"/>
              </g>
            </g>
            <rect x="265.682" y="410.666" style="fill:#58886B;" width="73.301" height="36.021"/>
            <g>
              <path style="fill:#FFFFFF;" d="M284.019,421.395c0,0.618-0.501,1.12-1.12,1.12c-0.618,0-1.12-0.501-1.12-1.12 s0.501-1.12,1.12-1.12C283.518,420.275,284.019,420.777,284.019,421.395z"/>
              <path style="fill:#FFFFFF;" d="M304.642,421.395c0,0.618-0.501,1.12-1.12,1.12s-1.12-0.501-1.12-1.12s0.501-1.12,1.12-1.12 S304.642,420.777,304.642,421.395z"/>
              <circle style="fill:#FFFFFF;" cx="272.588" cy="436.985" r="1.12"/>
              <path style="fill:#FFFFFF;" d="M294.331,436.985c0,0.618-0.501,1.12-1.12,1.12c-0.618,0-1.12-0.501-1.12-1.12 s0.501-1.12,1.12-1.12C293.829,435.865,294.331,436.366,294.331,436.985z"/>
              <path style="fill:#FFFFFF;" d="M273.708,414.775c0,0.618-0.501,1.12-1.12,1.12s-1.12-0.501-1.12-1.12 c0-0.618,0.501-1.12,1.12-1.12S273.708,414.157,273.708,414.775z"/>
              <path style="fill:#FFFFFF;" d="M294.331,414.775c0,0.618-0.501,1.12-1.12,1.12c-0.618,0-1.12-0.501-1.12-1.12 c0-0.618,0.501-1.12,1.12-1.12C293.829,413.655,294.331,414.157,294.331,414.775z"/>
              <path style="fill:#FFFFFF;" d="M314.954,414.775c0,0.618-0.501,1.12-1.12,1.12s-1.12-0.501-1.12-1.12 c0-0.618,0.501-1.12,1.12-1.12S314.954,414.157,314.954,414.775z"/>
              <circle style="fill:#FFFFFF;" cx="282.9" cy="442.957" r="1.12"/>
              <circle style="fill:#FFFFFF;" cx="303.523" cy="442.957" r="1.12"/>
              <path style="fill:#FFFFFF;" d="M325.312,421.395c0,0.618-0.501,1.12-1.12,1.12c-0.618,0-1.12-0.501-1.12-1.12 s0.501-1.12,1.12-1.12C324.811,420.275,325.312,420.777,325.312,421.395z"/>
              <circle style="fill:#FFFFFF;" cx="334.504" cy="436.985" r="1.12"/>
              <path style="fill:#FFFFFF;" d="M335.624,414.775c0,0.618-0.501,1.12-1.12,1.12c-0.618,0-1.12-0.501-1.12-1.12 c0-0.618,0.501-1.12,1.12-1.12C335.123,413.655,335.624,414.157,335.624,414.775z"/>
              <path style="fill:#FFFFFF;" d="M325.312,442.957c0,0.618-0.501,1.12-1.12,1.12c-0.618,0-1.12-0.501-1.12-1.12 c0-0.618,0.501-1.12,1.12-1.12C324.811,441.837,325.312,442.339,325.312,442.957z"/>
            </g>
            <rect x="265.682" y="424.608" style="fill:#8A232F;" width="73.301" height="8.119"/>
            <rect x="279.353" y="410.647" style="fill:#8A232F;" width="8.119" height="36.04"/>
            <polygon style="fill:#58886B;" points="307.551,419.441 309.79,446.687 338.983,446.687 338.983,419.919 &#9;&#9;&#9;&#9;&#9;"/>
          </g>
          <g>
            <polygon style="fill:#77AA8A;" points="354.147,421.025 310.443,421.025 312.683,446.687 350.135,446.687 &#9;&#9;&#9;&#9;&#9;"/>
            <path style="fill:#80B394;" d="M310.443,421.025l16.621,16.284c1.819,1.782,4.686,1.915,6.663,0.309l20.42-16.594"/>
            <path style="fill:#80B394;" d="M310.443,421.025l15.414,13.523c2.573,2.257,6.366,2.43,9.133,0.416l19.156-13.939H310.443z"/>
          </g>
        </g>
      </g>
    </g>
  </g>
</svg>